<svg width="143" height="52" viewBox="0 0 143 52" fill="none" xmlns="http://www.w3.org/2000/svg">
<g clip-path="url(#clip0_541_21198)">
<path d="M89 17.7001C89 22.0001 88.9 26.3001 89 30.7001C89 32.0001 88.5 33.2001 87.7 34.1001C86.9 35.0001 85.6 35.5001 84.4 35.5001C80.4 35.5001 76.4 35.5001 72.4 35.5001H58.7C56.8 35.5001 55.4 34.7001 54.5 33.1001C54.1 32.4001 54 31.7001 54 31.0001C54 22.3001 54 13.5001 54 4.80011C54 3.60011 54.5 2.40011 55.3 1.60011C56.2 0.700109 57.3 0.300109 58.5 0.300109C63.4 0.300109 68.4 0.300109 73.3 0.300109H84.4C86.7 0.000109404 88.6 1.60011 89 3.80011C89 4.00011 89 4.30011 89 4.50011C89 8.90011 89 13.3001 89 17.7001ZM71.5 34.6001H84.5C85.5 34.6001 86.5 34.2001 87.2 33.5001C87.9 32.8001 88.3 31.8001 88.3 30.8001V4.60011C88.3 2.40011 86.7 0.700109 84.5 0.700109C75.8 0.700109 67.2 0.700109 58.5 0.700109C57.5 0.700109 56.5 1.10011 55.8 1.80011C55.1 2.50011 54.7 3.50011 54.7 4.50011C54.7 13.3001 54.7 22.0001 54.7 30.8001C54.7 31.8001 55.1 32.7001 55.8 33.4001C56.5 34.1001 57.5 34.5001 58.4 34.5001H71.5V34.6001Z" fill="#0072BC"/>
<path d="M118.7 43.2002L121.1 48.4002L123.5 43.2002H127.3V51.9002H124.7V46.9002H124.6C123.8 48.6002 123 50.3002 122.2 52.0002H120C119.2 50.3002 118.4 48.7002 117.6 47.0002V52.0002H115V43.3002H118.7V43.2002Z" fill="#0072BC"/>
<path d="M100.8 48.6002V43.2002H103.4V51.9002H99.4999L95.9999 46.3002V51.9002H93.3999V43.2002H97.1999L100.8 48.6002Z" fill="#0072BC"/>
<path d="M41.5 51.9002H37.6L34.1 46.3002V51.9002H31.5V43.2002H35.3C36.5 45.0002 37.6 46.8002 38.8 48.7002H38.9V43.2002H41.5V51.9002Z" fill="#0072BC"/>
<path d="M70.3998 51.9002H67.7998V43.2002H71.5998L75.1998 48.7002V43.2002H77.7998V51.9002H73.8998L70.3998 46.3002V51.9002Z" fill="#0072BC"/>
<path d="M10 51.9002H6.2L2.7 46.3002V51.9002H0V43.2002H3.8L7.3 48.7002H7.4V43.3002H10V51.9002Z" fill="#0072BC"/>
<path d="M88.3 46.4001H85.6C85.6 46.1001 85.5 45.8001 85.5 45.5001C85.3 45.4001 85 45.4001 84.8 45.3001C83.9 45.3001 83.1 45.3001 82.2 45.3001C82.1 45.3001 81.9 45.3001 81.8 45.4001C81.7 45.5001 81.6 45.6001 81.6 45.8001C81.6 46.0001 81.5 46.3001 81.5 46.5001C81.5 47.3001 81.5 48.0001 81.5 48.7001C81.5 49.4001 81.6 49.5001 82.3 49.6001C83.2 49.7001 84 49.7001 84.9 49.6001C85 49.6001 85.1 49.5001 85.3 49.5001L85.5 48.8001H83V46.8001H88.2C88.2 47.8001 88.2 48.8001 88.1 49.8001C88 50.6001 87.5 51.2001 86.7 51.4001C86 51.9001 85.1 52.0001 84.3 52.0001C83.2 52.1001 82.1 52.0001 81 51.8001C79.8 51.5001 79 50.8001 78.9 49.6001C78.7 48.3001 78.7 46.9001 78.9 45.6001C79.1 44.4001 79.9 43.7001 81.1 43.4001C82.9 43.0001 84.7 43.0001 86.5 43.4001C87.5 43.6001 88.1 44.3001 88.3 45.4001C88.3 45.7001 88.3 46.0001 88.3 46.4001Z" fill="#0072BC"/>
<path d="M20.4999 46.4H17.7999L17.6999 45.5C17.4999 45.4 17.1999 45.4 16.9999 45.3C16.1999 45.3 15.2999 45.3 14.4999 45.3C14.0999 45.3 13.9999 45.4 13.8999 45.9C13.8999 46.2 13.7999 46.6 13.7999 46.9C13.7999 47.5 13.7999 48.2 13.7999 48.8C13.7999 49.4 13.8999 49.6 14.4999 49.6C15.2999 49.7 16.0999 49.7 16.9999 49.6C17.5999 49.6 17.6999 49.4 17.6999 48.8H15.2999V46.8H20.5999C20.4999 47.8 20.4999 48.8 20.3999 49.8C20.2999 50.7 19.6999 51.4 18.8999 51.5C18.0999 51.7 17.2999 51.8 16.4999 51.8C15.4999 51.8 14.4999 51.8 13.4999 51.6C11.8999 51.4 11.1999 50.5 11.0999 48.8C10.9999 47.9 10.9999 47 11.0999 46C11.1999 44.1 11.8999 43.3 13.7999 43C15.3999 42.7 16.9999 42.8 18.4999 43.1C19.7999 43.4 20.3999 44.1 20.4999 45.6C20.4999 46 20.4999 46.2 20.4999 46.4Z" fill="#0072BC"/>
<path d="M53.5 48.6002H49.8V51.9002H47V43.2002H49.8V46.4002H53.5V43.2002H56.3V51.9002H53.5V48.6002Z" fill="#0072BC"/>
<path d="M31.2 51.9002H28.3L27.7 50.5002H24C23.8 51.0002 23.6 51.4002 23.4 51.9002H20.5L24.1 43.2002H27.5L31.2 51.9002ZM26.9 48.4002C26.5 47.6002 26.2 46.8002 25.9 45.9002L24.9 48.4002H26.9Z" fill="#0072BC"/>
<path d="M143 51.9002H140.1L139.5 50.5002H135.8C135.6 51.0002 135.4 51.5002 135.2 51.9002H132.3C133.5 49.0002 134.7 46.1002 136 43.2002H139.4C140.5 46.1002 141.7 49.0002 143 51.9002ZM138.6 48.4002L137.6 45.9002L136.6 48.4002H138.6Z" fill="#0072BC"/>
<path d="M106.6 51.9002H103.7C104.9 49.0002 106.1 46.1002 107.3 43.2002H110.7C111.9 46.1002 113.2 49.0002 114.5 51.9002H111.6L111 50.5002H107.3L106.6 51.9002ZM110.1 48.4002C109.8 47.6002 109.4 46.8002 109.1 45.9002C108.7 46.8002 108.4 47.6002 108.1 48.4002H110.1Z" fill="#0072BC"/>
<path d="M60.2002 43.2002H63.6002L67.4002 51.9002H64.5002C64.3002 51.4002 64.1002 51.0002 63.9002 50.5002H60.2002C60.0002 51.0002 59.8002 51.4002 59.6002 51.9002H56.7002C57.8002 49.0002 59.0002 46.1002 60.2002 43.2002ZM60.9002 48.4002H63.0002L62.0002 45.9002L60.9002 48.4002Z" fill="#0072BC"/>
<path d="M25.7998 39.7002L28.7998 41.1002L27.9998 42.4002C27.2998 42.2002 26.6998 42.0002 26.0998 41.8002C25.8998 41.7002 25.7998 41.7002 25.5998 41.8002C24.8998 42.0002 24.2998 42.2002 23.5998 42.4002L22.7998 41.2002L25.7998 39.7002Z" fill="#0072BC"/>
<path d="M63.3998 40.9L62.5998 42.1L59.7998 40.5L60.9998 39L63.3998 40.9Z" fill="#0072BC"/>
<path d="M140.1 40.3L137.3 41.9001L136.5 40.7001L139 38.8L140.1 40.3Z" fill="#0072BC"/>
<path d="M71.5002 34.6002H58.4002C57.4002 34.6002 56.5002 34.2002 55.8002 33.5002C55.1002 32.8002 54.7002 31.8002 54.7002 30.8002C54.7002 22.0002 54.7002 13.3002 54.7002 4.5002C54.7002 3.5002 55.1002 2.5002 55.8002 1.8002C56.5002 1.1002 57.5002 0.700195 58.5002 0.700195C67.2002 0.700195 75.8002 0.700195 84.5002 0.700195C86.7002 0.700195 88.3002 2.4002 88.3002 4.6002V30.7002C88.3002 31.7002 87.9002 32.7002 87.2002 33.4002C86.5002 34.1002 85.5002 34.5002 84.5002 34.5002H71.5002V34.6002ZM71.4002 7.1002C68.6002 11.9002 65.9002 16.6002 63.2002 21.3002H69.6002L74.7002 12.5002L71.4002 7.1002ZM64.4002 7.1002C61.6002 11.8002 58.9002 16.6002 56.2002 21.3002H62.6002C64.3002 18.4002 66.0002 15.4002 67.7002 12.5002C66.6002 10.7002 65.5002 8.9002 64.4002 7.1002ZM78.5002 7.1002L70.3002 21.3002H76.1002L76.8002 20.0002C74.5002 18.7002 74.4002 16.2002 75.2002 14.7002C76.1002 13.1002 78.3002 12.1002 80.6002 13.4002L81.1002 12.6002L81.5002 13.2002L81.2002 13.8002C82.5002 15.0002 82.8002 17.0002 81.9002 18.5002C81.0002 20.1002 79.2002 20.8002 77.5002 20.3002L76.9002 21.4002H86.9002L78.5002 7.1002ZM78.5002 13.2002C76.7002 13.3002 75.3002 14.7002 75.3002 16.5002C75.3002 18.3002 76.7002 19.8002 78.5002 19.8002C79.7002 19.8002 80.8002 19.2002 81.4002 18.2002C82.0002 17.2002 82.0002 15.9002 81.4002 14.8002C80.8002 13.8002 79.7002 13.2002 78.5002 13.2002ZM66.2002 23.9002C65.9002 24.5002 65.7002 25.1002 65.4002 25.8002C65.1002 25.1002 64.8002 24.5002 64.6002 23.9002H63.4002V27.0002H64.2002V25.3002L65.0002 27.0002H65.8002C66.1002 26.4002 66.3002 25.8002 66.6002 25.3002H66.7002V27.0002H67.5002V23.9002H66.2002ZM79.8002 26.9002H80.7002V24.9002C81.1002 25.6002 81.5002 26.3002 81.9002 26.9002H83.2002V23.8002H82.4002V25.7002H82.3002C81.9002 25.1002 81.5002 24.4002 81.2002 23.8002H79.9002L79.8002 26.9002ZM56.2002 23.8002V26.9002H57.0002V24.9002C57.4002 25.6002 57.8002 26.3002 58.2002 26.9002H59.5002V23.9002H58.6002V25.9002L57.4002 23.9002H56.2002V23.8002ZM73.1002 26.9002C73.8002 26.9002 74.5002 26.9002 75.1002 26.9002C75.8002 26.9002 76.2002 26.4002 76.0002 25.7002C75.9002 25.5002 75.9002 25.4002 75.8002 25.2002C76.2002 24.5002 75.9002 23.8002 75.1002 23.8002C74.7002 23.8002 74.4002 23.8002 74.0002 23.8002H73.1002V26.9002ZM84.4002 25.8002L85.7002 26.9002H86.8002C86.3002 26.4002 85.8002 25.9002 85.3002 25.3002L86.7002 23.8002H85.5002L84.4002 25.0002V23.9002H83.5002V27.0002H84.4002V25.8002ZM69.7002 23.8002C69.3002 24.8002 68.9002 25.8002 68.5002 26.9002H69.4002L69.6002 26.4002H70.8002C70.9002 26.6002 70.9002 26.7002 71.0002 26.9002H71.9002C71.5002 25.9002 71.1002 24.8002 70.7002 23.8002H69.7002ZM63.2002 26.9002C62.8002 25.9002 62.4002 24.8002 62.0002 23.8002H60.9002C60.5002 24.8002 60.1002 25.8002 59.7002 26.9002H60.7002L60.9002 26.4002H62.0002C62.1002 26.6002 62.1002 26.7002 62.2002 26.9002H63.2002ZM77.3002 23.8002L76.1002 26.9002H77.1002L77.3002 26.4002H78.5002L78.7002 26.9002H79.6002L78.4002 23.8002H77.3002Z" fill="white"/>
<path d="M71.4001 7L74.6001 12.4L69.5001 21.2H63.1001C66.0001 16.5 68.7001 11.8 71.4001 7Z" fill="#0072BC"/>
<path d="M64.4001 7C65.5001 8.8 66.5001 10.6 67.6001 12.4C65.9001 15.3 64.2001 18.3 62.5001 21.2H56.1001C59.0001 16.5 61.7001 11.8 64.4001 7Z" fill="#0072BC"/>
<path d="M78.5002 7L86.8002 21.2H76.8002L77.4002 20.1C79.1002 20.6 80.9002 19.9 81.8002 18.3C82.7002 16.7 82.4002 14.8 81.1002 13.6L81.4002 13L81.0002 12.5L80.5002 13.3C78.3002 12 76.0002 13 75.1002 14.6C74.2002 16.1 74.4002 18.6 76.7002 19.9L76.0002 21.2H70.2002L78.5002 7Z" fill="#0072BC"/>
<path d="M78.4998 13.2002C80.2998 13.2002 81.7998 14.6002 81.7998 16.5002C81.7998 18.4002 80.3998 19.8002 78.5998 19.8002C76.7998 19.8002 75.2998 18.4002 75.2998 16.5002C75.2998 15.6002 75.5998 14.8002 76.1998 14.1002C76.7998 13.4002 77.5998 13.2002 78.4998 13.2002ZM76.9998 16.5002L78.4998 18.1002L79.9998 16.6002L78.4998 15.0002L76.9998 16.5002Z" fill="#FFF200"/>
<path d="M66.1999 23.9001H67.4999V27.0001H66.6999V25.3001H66.5999C66.3999 25.9001 66.0999 26.4001 65.7999 27.0001H64.9999L64.1999 25.3001V27.0001H63.3999V24.0001H64.5999C64.7999 24.6001 65.0999 25.2001 65.3999 25.9001C65.6999 25.1001 65.9999 24.4001 66.1999 23.9001Z" fill="#0072BC"/>
<path d="M79.7998 26.9V23.8H81.0998C81.4998 24.4 81.8998 25.1001 82.1998 25.7001H82.2998V23.8H83.0998V26.9H81.7998C81.3998 26.3 80.9998 25.6 80.5998 24.9V26.9H79.7998Z" fill="#0072BC"/>
<path d="M56.2002 23.8H57.5002L58.7002 25.8V23.8H59.6002V26.8H58.3002C57.9002 26.2 57.5002 25.5 57.1002 24.8V26.8H56.3002L56.2002 23.8Z" fill="#0072BC"/>
<path d="M73.1001 26.9V23.8H74.0001C74.4001 23.8 74.7001 23.8 75.1001 23.8C75.9001 23.9 76.2001 24.5001 75.8001 25.2001C75.9001 25.3001 76.0001 25.5001 76.0001 25.7001C76.2001 26.4001 75.8001 26.9 75.1001 26.9C74.5001 26.9 73.8001 26.9 73.1001 26.9ZM75.1001 26.2001C75.1001 26.0001 75.1001 25.9001 75.1001 25.7001H74.0001V26.2001H75.1001ZM75.1001 25V24.6H74.1001V25H75.1001Z" fill="#0072BC"/>
<path d="M84.4 25.8V26.9H83.5V23.8H84.4V25L85.5 23.9H86.7L85.3 25.4C85.8 25.9 86.3 26.5 86.8 27H85.7L84.4 25.8Z" fill="#0072BC"/>
<path d="M69.7001 23.8H70.8001C71.2001 24.8 71.6001 25.8 72.0001 26.9H71.1001C71.0001 26.7 71.0001 26.6 70.9001 26.4H69.7001L69.5001 26.9H68.6001C68.9001 25.9 69.3001 24.9 69.7001 23.8ZM70.3001 24.8L70.0001 25.7001H70.7001L70.3001 24.8Z" fill="#0072BC"/>
<path d="M63.2001 26.9H62.3001C62.2001 26.7 62.2001 26.6 62.1001 26.4H60.8001L60.6001 26.9H59.6001C60.0001 25.9 60.4001 24.8 60.8001 23.8H61.9001C62.3001 24.9 62.8001 25.9 63.2001 26.9ZM61.7001 25.7001C61.6001 25.4001 61.5001 25.1 61.3001 24.8C61.2001 25.2 61.1001 25.4001 60.9001 25.7001H61.7001Z" fill="#0072BC"/>
<path d="M77.3001 23.8H78.4001L79.6001 26.9H78.7001L78.5001 26.4H77.3001L77.0001 26.9H76.1001L77.3001 23.8ZM77.5001 25.7001H78.2001L77.8001 24.8L77.5001 25.7001Z" fill="#0072BC"/>
<path d="M77 16.5L78.5 15L80 16.5L78.5 18L77 16.5Z" fill="white"/>
<path d="M75.1 26.2002H74V25.7002H75.1C75.1 25.9002 75.1 26.0002 75.1 26.2002Z" fill="white"/>
<path d="M75.1001 25.0001H74.1001V24.6001H75.1001V25.0001Z" fill="white"/>
<path d="M70.3 24.8L70.7 25.7001H70L70.3 24.8Z" fill="white"/>
<path d="M61.7 25.7001H61C61.1 25.4001 61.2 25.1 61.4 24.8C61.5 25.1 61.6 25.4001 61.7 25.7001Z" fill="white"/>
<path d="M77.5 25.7001L77.8 24.8L78.2 25.7001H77.5Z" fill="white"/>
</g>
<defs>
<clipPath id="clip0_541_21198">
<rect width="143" height="52" fill="white"/>
</clipPath>
</defs>
</svg>
