<svg width="119" height="35" viewBox="0 0 119 35" fill="none" xmlns="http://www.w3.org/2000/svg">
<g clip-path="url(#clip0_541_21249)">
<mask id="mask0_541_21249" style="mask-type:luminance" maskUnits="userSpaceOnUse" x="0" y="0" width="119" height="35">
<path d="M119 0H0V35H119V0Z" fill="white"/>
</mask>
<g mask="url(#mask0_541_21249)">
<path d="M116.978 13.5558L116.819 13.3958L116.964 13.2218C117.978 12.011 118.475 10.5635 118.405 9.02909C118.239 5.56702 115.082 2.85303 111.214 2.85303H102.896C101.515 2.85303 100.395 3.9595 100.395 5.32345V22.8043C100.395 24.1682 101.515 25.2747 102.896 25.2747H111.186C113.229 25.2747 115.174 24.551 116.657 23.2392C118.169 21.9066 119 20.1425 119 18.2775C119 16.5308 118.281 14.8537 116.978 13.5558ZM105.263 7.34503H111.552C112.785 7.34503 113.55 8.36799 113.55 9.31789C113.55 10.5357 112.514 11.2907 111.552 11.2907H105.263V7.34503ZM111.591 20.7862H105.267V15.7757H111.591C112.574 15.7757 114.131 16.4786 114.131 18.368C114.131 19.3805 113.247 20.7862 111.591 20.7862Z" fill="black"/>
<path d="M90.1426 11.8022C88.226 11.2872 85.9431 10.6992 85.855 9.17517C85.7916 8.10349 86.6583 7.19535 88.0464 7.02486C90.8578 6.67691 93.3839 8.31226 94.7051 8.63585C96.0156 8.95596 97.0867 7.84601 97.2206 6.76042C97.4284 5.08331 95.7479 4.16821 95.1173 3.78547C94.0498 3.14177 92.1684 2.3728 89.283 2.3728C84.2907 2.3728 80.8028 5.22249 80.8028 9.30391C80.8028 11.5134 81.6273 13.1453 83.2725 14.3631C86.4751 16.7326 92.6793 16.4508 92.6863 18.8934C92.6933 21.0854 88.596 22.4389 84.0793 19.4883C83.6812 19.1787 83.2056 19.0117 82.6912 19.0117C81.4828 19.0117 80.4576 20.0207 80.4541 21.2142C80.4541 21.6108 80.5598 22.0005 80.7641 22.3415L80.6795 22.3902L80.7676 22.3485C80.7923 22.3902 80.8205 22.4355 80.8486 22.4772C81.2538 23.0792 81.8563 23.6428 82.5855 24.116C83.7517 24.8676 85.8198 25.7688 89.0575 25.7688C91.6928 25.7688 93.9018 25.1181 95.4519 23.8829C97.0303 22.6268 97.8618 20.8279 97.8618 18.6741C97.8582 14.3909 94.1414 12.8808 90.1426 11.8022Z" fill="black"/>
<path d="M75.4227 2.86011H73.8831C72.9988 2.86011 72.192 3.36115 71.808 4.14751L66.5445 14.8991L61.2809 4.14751C60.8969 3.36115 60.0901 2.86011 59.2058 2.86011H57.6662C56.2957 2.86011 55.1719 3.96658 55.1719 5.32357V23.0794C55.1719 24.8191 57.0532 26.1343 58.9134 25.1392C59.618 24.7634 60.0408 24.0223 60.0408 23.2324V12.6618L64.413 20.9534C64.8604 21.8024 65.7024 22.2269 66.5409 22.2269C67.3794 22.2269 68.2215 21.8024 68.6689 20.9534L73.0411 12.6618V23.2324C73.0411 24.0223 73.4638 24.7669 74.1685 25.1392C76.0287 26.1308 77.91 24.8191 77.91 23.0794V5.32357C77.9171 3.97006 76.7932 2.86011 75.4227 2.86011Z" fill="black"/>
<path d="M21.0894 25.9011L7.81792 10.2783C5.57723 7.64088 5.92954 3.6708 8.60005 1.45786C11.2705 -0.755084 15.2904 -0.407137 17.5311 2.2303L30.8026 17.8531C33.0433 20.4906 32.691 24.4606 30.0205 26.6736C27.35 28.8865 23.3301 28.5386 21.0894 25.9011Z" fill="url(#paint0_radial_541_21249)"/>
<path d="M35.439 7.56444L32.1484 23.1281C31.4367 26.4997 28.0581 28.6813 24.6442 27.9785C21.2303 27.2756 19.0213 23.9388 19.7329 20.5672L23.0235 5.00355C23.7352 1.63195 27.1139 -0.549681 30.5278 0.153173C33.9452 0.859505 36.1542 4.19284 35.439 7.56444Z" fill="url(#paint1_radial_541_21249)"/>
<path d="M37.6407 25.9011L24.3692 10.2783C22.1285 7.64088 22.4808 3.6708 25.1513 1.45786C27.8218 -0.755084 31.8417 -0.407137 34.0824 2.2303L47.354 17.8531C49.5947 20.4906 49.2423 24.4606 46.5718 26.6736C43.9048 28.8865 39.885 28.5386 37.6407 25.9011Z" fill="url(#paint2_radial_541_21249)"/>
<path d="M12.6585 21.3603C12.965 25.219 9.7308 28.4132 5.82367 28.1105C2.75152 27.8704 0.26421 25.4139 0.0211158 22.3763C-0.285395 18.5176 2.94882 15.3234 6.85594 15.6261C9.92809 15.8662 12.4189 18.3262 12.6585 21.3603Z" fill="url(#paint3_radial_541_21249)"/>
<path d="M57.7086 33.8274C57.395 33.8274 57.1097 33.7717 56.8454 33.6603C56.5812 33.549 56.3522 33.3959 56.1584 33.2011C55.9647 33.0097 55.8132 32.78 55.7075 32.5191C55.6018 32.2581 55.5454 31.9832 55.5454 31.6875V31.6736C55.5454 31.3813 55.5983 31.1029 55.7075 30.8385C55.8167 30.5741 55.9682 30.3444 56.162 30.1496C56.3557 29.9547 56.5882 29.7981 56.8525 29.6833C57.1167 29.5685 57.4091 29.5093 57.7262 29.5093C58.0574 29.5093 58.3428 29.5581 58.5753 29.6555C58.8078 29.7529 59.0157 29.8747 59.1954 30.0278C59.2271 30.0556 59.2588 30.0974 59.294 30.153C59.3292 30.2122 59.3468 30.2783 59.3468 30.3583C59.3468 30.4766 59.3046 30.581 59.2165 30.6645C59.1284 30.748 59.0262 30.7898 58.9029 30.7898C58.7867 30.7898 58.6915 30.7585 58.6176 30.6958C58.4943 30.5915 58.3639 30.5079 58.223 30.4418C58.0785 30.3757 57.9129 30.3444 57.7227 30.3444C57.5465 30.3444 57.388 30.3792 57.24 30.4488C57.0921 30.5184 56.9652 30.6123 56.856 30.7306C56.7468 30.8489 56.6622 30.9881 56.6023 31.1482C56.5425 31.3082 56.5107 31.4787 56.5107 31.6562V31.6701C56.5107 31.8545 56.5425 32.025 56.6023 32.1885C56.6622 32.3521 56.7503 32.4912 56.8595 32.6095C56.9687 32.7313 57.1026 32.8253 57.2541 32.8914C57.4091 32.961 57.5747 32.9923 57.7614 32.9923C57.9517 32.9923 58.1208 32.9575 58.2723 32.8914C58.4238 32.8253 58.5647 32.7348 58.6951 32.6269C58.7197 32.5991 58.7585 32.5782 58.8008 32.5574C58.8466 32.5365 58.8959 32.526 58.9558 32.526C59.072 32.526 59.1707 32.5678 59.2482 32.6478C59.3257 32.7278 59.368 32.8253 59.368 32.9401C59.368 33.0654 59.3222 33.1628 59.2341 33.2359C59.0474 33.4133 58.836 33.556 58.5964 33.6638C58.3533 33.7752 58.0574 33.8274 57.7086 33.8274Z" fill="#EF4123"/>
<path d="M64.0185 33.302C64.0185 33.4342 63.9727 33.542 63.8811 33.636C63.7895 33.7265 63.6733 33.7717 63.5359 33.7717C63.402 33.7717 63.2893 33.7265 63.1941 33.6395C63.099 33.5525 63.0532 33.4377 63.0532 33.302V33.0897C62.9158 33.288 62.7432 33.4585 62.5388 33.6012C62.3345 33.7439 62.0667 33.8169 61.7461 33.8169C61.2635 33.8169 60.8971 33.6743 60.6399 33.3889C60.3827 33.1036 60.2559 32.7174 60.2559 32.2268V30.0278C60.2559 29.8921 60.3017 29.7773 60.3933 29.6868C60.4849 29.5963 60.5976 29.5511 60.7315 29.5511C60.8689 29.5511 60.9851 29.5963 61.0767 29.6868C61.1683 29.7773 61.2141 29.8921 61.2141 30.0278V31.945C61.2141 32.272 61.2917 32.5226 61.4467 32.6931C61.6017 32.8635 61.8236 32.9471 62.109 32.9471C62.3944 32.9471 62.6234 32.8601 62.796 32.6861C62.9687 32.5121 63.0532 32.2581 63.0532 31.931V30.0278C63.0532 29.8921 63.099 29.7773 63.1906 29.6868C63.2822 29.5963 63.3985 29.5511 63.5359 29.5511C63.6662 29.5511 63.7825 29.5963 63.8776 29.6868C63.9727 29.7773 64.0221 29.8921 64.0221 30.0278V33.302H64.0185ZM62.2887 29.1127C62.1795 29.1127 62.0808 29.0988 61.9963 29.0744C61.9117 29.0466 61.8236 28.9909 61.7356 28.9004L61.1965 28.3994C61.1049 28.3194 61.0627 28.2428 61.0627 28.1628C61.0627 28.128 61.0803 28.0897 61.1155 28.0549C61.1507 28.0166 61.1965 27.9853 61.2494 27.9575C61.3057 27.9297 61.3656 27.9053 61.4361 27.8879C61.503 27.8705 61.57 27.8601 61.6334 27.8601C61.7919 27.8601 61.9188 27.9366 62.0139 28.0862L62.4649 28.7752C62.4789 28.803 62.4966 28.8308 62.5106 28.8622C62.5283 28.8935 62.5353 28.9213 62.5353 28.9491C62.5353 29.0605 62.4543 29.1127 62.2887 29.1127Z" fill="#EF4123"/>
<path d="M65.2163 30.0313C65.2163 29.8956 65.2621 29.7808 65.3502 29.6903C65.4383 29.5999 65.5545 29.5546 65.6919 29.5546C65.8293 29.5546 65.9456 29.5999 66.0372 29.6903C66.1288 29.7808 66.1746 29.8956 66.1746 30.0313V30.2331C66.312 30.0418 66.4811 29.8713 66.6854 29.7286C66.8898 29.5859 67.154 29.5129 67.4817 29.5129C67.9608 29.5129 68.3307 29.6555 68.5879 29.9409C68.8451 30.2262 68.9719 30.6089 68.9719 31.096V33.3055C68.9719 33.4412 68.9261 33.5525 68.8381 33.643C68.7465 33.7335 68.6337 33.7752 68.4963 33.7752C68.3589 33.7752 68.2427 33.73 68.1511 33.643C68.0595 33.556 68.0137 33.4412 68.0137 33.3055V31.3848C68.0137 31.0543 67.9362 30.8038 67.7811 30.6333C67.6261 30.4593 67.4042 30.3758 67.1188 30.3758C66.8334 30.3758 66.6044 30.4628 66.4318 30.6402C66.2591 30.8177 66.1746 31.0717 66.1746 31.3988V33.302C66.1746 33.4377 66.1288 33.5491 66.0372 33.6395C65.9456 33.73 65.8293 33.7717 65.6919 33.7717C65.5581 33.7717 65.4488 33.7265 65.3537 33.6395C65.2621 33.5525 65.2163 33.4377 65.2163 33.302V30.0313Z" fill="#EF4123"/>
<path d="M71.9914 35C71.6919 35 71.4101 34.9687 71.1458 34.9061C70.8851 34.8434 70.6279 34.753 70.3743 34.6312C70.1946 34.5651 70.103 34.4398 70.103 34.2554C70.103 34.151 70.1417 34.0605 70.2228 33.9805C70.3038 33.9005 70.3989 33.8622 70.5081 33.8622C70.561 33.8622 70.6174 33.8761 70.6843 33.9005C70.8745 34.0049 71.0754 34.0849 71.2867 34.1441C71.4981 34.2032 71.7236 34.231 71.9702 34.231C72.3965 34.231 72.7242 34.1267 72.9532 33.9144C73.1787 33.7022 73.2949 33.3855 73.2949 32.9645V32.6444C73.1188 32.8706 72.9179 33.0515 72.6854 33.1942C72.4529 33.3368 72.164 33.4064 71.8223 33.4064C71.5721 33.4064 71.3361 33.3612 71.1106 33.2742C70.8816 33.1872 70.6808 33.0585 70.5046 32.8949C70.3285 32.7314 70.1875 32.5296 70.0818 32.2895C69.9761 32.0494 69.9233 31.778 69.9233 31.4753V31.4544C69.9233 31.1517 69.9761 30.8803 70.0818 30.6367C70.1875 30.3932 70.3285 30.1914 70.5046 30.0278C70.6808 29.8643 70.8851 29.7356 71.1106 29.6486C71.3361 29.5616 71.5756 29.5164 71.8223 29.5164C72.1746 29.5164 72.467 29.5859 72.6995 29.7251C72.932 29.8643 73.1258 30.0278 73.2914 30.2227V30.0278C73.2914 29.8956 73.3372 29.7878 73.4288 29.6938C73.5204 29.6033 73.6331 29.5581 73.767 29.5581C73.9044 29.5581 74.0207 29.6033 74.1123 29.6938C74.2039 29.7843 74.2497 29.8991 74.2497 30.0348V32.8914C74.2497 33.5804 74.0735 34.0988 73.7177 34.4502C73.3372 34.8156 72.7629 35 71.9914 35ZM72.0724 32.5992C72.2345 32.5992 72.393 32.5713 72.5445 32.5157C72.696 32.46 72.8263 32.3834 72.9356 32.286C73.0483 32.1886 73.1364 32.0668 73.1998 31.9276C73.2667 31.785 73.2984 31.6319 73.2984 31.4649V31.4509C73.2984 31.2839 73.2667 31.1308 73.1998 30.9882C73.1329 30.8455 73.0448 30.7272 72.9356 30.6263C72.8263 30.5254 72.6925 30.4489 72.5445 30.3967C72.393 30.341 72.238 30.3132 72.0724 30.3132C71.9033 30.3132 71.7483 30.341 71.6038 30.3967C71.4594 30.4523 71.3361 30.5289 71.2268 30.6263C71.1176 30.7272 71.0331 30.8455 70.9732 30.9812C70.9133 31.1204 70.8816 31.2735 70.8816 31.4475V31.4614C70.8816 31.6284 70.9133 31.7815 70.9767 31.9241C71.0401 32.0633 71.1247 32.1851 71.2304 32.2825C71.3361 32.3834 71.4629 32.46 71.6073 32.5122C71.7518 32.5644 71.9068 32.5992 72.0724 32.5992Z" fill="#EF4123"/>
<path d="M80.1189 33.3958C80.059 33.5176 79.9886 33.615 79.9005 33.695C79.8124 33.7716 79.7032 33.8133 79.5728 33.8133H79.5235C79.3896 33.8133 79.2804 33.7751 79.1959 33.6985C79.1078 33.622 79.0373 33.5211 78.9774 33.3958L77.5823 30.2399C77.5717 30.2051 77.5612 30.1669 77.5471 30.1251C77.533 30.0833 77.5259 30.0451 77.5259 30.0033C77.5259 29.885 77.5717 29.7772 77.6633 29.6867C77.7549 29.5962 77.8677 29.551 78.0015 29.551C78.1319 29.551 78.2341 29.5823 78.3081 29.6484C78.3785 29.7145 78.4349 29.7945 78.4772 29.8955L79.5552 32.6373L80.6474 29.8815C80.6826 29.798 80.7355 29.7215 80.8059 29.6554C80.8764 29.5893 80.9715 29.5545 81.0984 29.5545C81.2322 29.5545 81.3414 29.5962 81.4295 29.6832C81.5176 29.7702 81.5634 29.8781 81.5634 30.0068C81.5634 30.0485 81.5564 30.0903 81.5423 30.1321C81.5282 30.1738 81.5176 30.2086 81.507 30.233L80.1189 33.3958Z" fill="#EF4123"/>
<path d="M86.9751 29.1301C86.9751 29.4294 86.9222 29.6625 86.813 29.8364C86.7038 30.0104 86.4959 30.1148 86.1894 30.1566V33.3055C86.1894 33.4377 86.1436 33.5456 86.052 33.6395C85.9604 33.73 85.8442 33.7752 85.7068 33.7752C85.5729 33.7752 85.4602 33.73 85.365 33.643C85.2699 33.556 85.2241 33.4412 85.2241 33.3055V33.0898C85.0867 33.2881 84.9141 33.4586 84.7097 33.6012C84.5054 33.7439 84.2376 33.817 83.917 33.817C83.4344 33.817 83.068 33.6743 82.8108 33.389C82.5536 33.1037 82.4268 32.7174 82.4268 32.2268V30.0278C82.4268 29.8921 82.4726 29.7773 82.5642 29.6868C82.6558 29.5964 82.7685 29.5511 82.9024 29.5511C83.0398 29.5511 83.156 29.5964 83.2476 29.6868C83.3392 29.7773 83.385 29.8921 83.385 30.0278V31.945C83.385 32.2721 83.4625 32.5226 83.6176 32.6931C83.7726 32.8636 83.9945 32.9471 84.2799 32.9471C84.5653 32.9471 84.7943 32.8601 84.9669 32.6861C85.1396 32.5122 85.2241 32.2582 85.2241 31.9311V30.0278C85.2241 29.8921 85.2699 29.7773 85.3615 29.6868C85.4531 29.5964 85.5694 29.5511 85.7068 29.5511C85.7596 29.5511 85.8089 29.5581 85.8583 29.5755C85.9428 29.5685 86.0062 29.5581 86.052 29.5372C86.0978 29.5163 86.1295 29.4885 86.1507 29.4502C86.1718 29.4154 86.1824 29.3702 86.1859 29.318C86.1894 29.2658 86.1894 29.2101 86.1894 29.144V29.1232C86.1894 29.0188 86.2247 28.9318 86.2916 28.8622C86.3585 28.7926 86.4642 28.7578 86.6087 28.7578C86.7144 28.7578 86.8025 28.7926 86.8694 28.8622C86.9363 28.9318 86.9716 29.0188 86.9716 29.1232V29.1301H86.9751Z" fill="#EF4123"/>
<path d="M89.3778 33.8274C89.0607 33.8274 88.7647 33.7717 88.4935 33.6604C88.2222 33.549 87.9861 33.3959 87.7888 33.2011C87.5915 33.0062 87.4365 32.7801 87.3238 32.5191C87.2146 32.2582 87.1582 31.9833 87.1582 31.6875V31.6736C87.1582 31.3779 87.2146 31.096 87.3273 30.8351C87.44 30.5741 87.5986 30.3445 87.7959 30.1496C87.9932 29.9547 88.2292 29.7982 88.5005 29.6833C88.7718 29.5685 89.0712 29.5094 89.3918 29.5094C89.5539 29.5094 89.716 29.5233 89.8675 29.5546C89.9027 29.5546 89.9555 29.5546 90.019 29.5581C90.0824 29.5616 90.1458 29.5616 90.2127 29.5616C90.2797 29.5616 90.336 29.5616 90.3818 29.565C90.4312 29.5685 90.4558 29.5685 90.4629 29.5685C90.5615 29.5685 90.639 29.5581 90.6919 29.5407C90.7447 29.5233 90.7835 29.4955 90.8081 29.4572C90.8328 29.4224 90.8469 29.3772 90.8504 29.325C90.8539 29.2728 90.8575 29.2101 90.8575 29.1371V29.1232C90.8575 29.0188 90.8927 28.9318 90.9596 28.8622C91.0266 28.7926 91.1358 28.7578 91.2767 28.7578C91.3824 28.7578 91.4705 28.7926 91.5374 28.8622C91.6044 28.9318 91.6396 29.0188 91.6396 29.1232V29.1301C91.6396 29.4085 91.5938 29.6312 91.5022 29.7982C91.4106 29.9687 91.2309 30.08 90.9667 30.1322C91.1675 30.3305 91.326 30.5602 91.4423 30.8211C91.5585 31.0821 91.6184 31.3605 91.6184 31.6597V31.6736C91.6184 31.9659 91.5621 32.2442 91.4493 32.5017C91.3366 32.7627 91.1781 32.9923 90.9808 33.1872C90.7835 33.382 90.5474 33.5386 90.2726 33.6534C89.9978 33.7682 89.6984 33.8274 89.3778 33.8274ZM89.3918 32.9958C89.5856 32.9958 89.7618 32.961 89.9203 32.8914C90.0753 32.8218 90.2092 32.7279 90.3219 32.6096C90.4312 32.4913 90.5157 32.3521 90.5756 32.1955C90.6355 32.0355 90.6637 31.8685 90.6637 31.691V31.6771C90.6637 31.4962 90.632 31.3222 90.5686 31.1621C90.5051 31.0021 90.4171 30.8594 90.3043 30.7376C90.1916 30.6193 90.0542 30.5219 89.8992 30.4523C89.7442 30.3827 89.5715 30.3479 89.3813 30.3479C89.191 30.3479 89.0184 30.3827 88.8634 30.4523C88.7084 30.5219 88.5745 30.6158 88.4617 30.7342C88.349 30.8525 88.2645 30.9916 88.2081 31.1517C88.1517 31.3117 88.12 31.4822 88.12 31.6597V31.6736C88.12 31.858 88.1517 32.0285 88.2151 32.1851C88.2785 32.3451 88.3666 32.4843 88.4794 32.6026C88.5921 32.7244 88.7295 32.8184 88.8845 32.8879C89.0395 32.9575 89.2086 32.9958 89.3918 32.9958Z" fill="#EF4123"/>
<path d="M92.5947 30.0313C92.5947 29.8956 92.6405 29.7808 92.7286 29.6903C92.8166 29.5999 92.9329 29.5546 93.0703 29.5546C93.2077 29.5546 93.324 29.5999 93.4156 29.6903C93.5072 29.7808 93.553 29.8956 93.553 30.0313V30.2331C93.6904 30.0418 93.8595 29.8713 94.0638 29.7286C94.2682 29.5859 94.5324 29.5129 94.86 29.5129C95.3392 29.5129 95.7091 29.6555 95.9663 29.9409C96.2235 30.2262 96.3503 30.6089 96.3503 31.096V33.3055C96.3503 33.4412 96.3045 33.5525 96.2164 33.643C96.1248 33.7335 96.0121 33.7752 95.8747 33.7752C95.7373 33.7752 95.621 33.73 95.5294 33.643C95.4378 33.556 95.392 33.4412 95.392 33.3055V31.3848C95.392 31.0543 95.3145 30.8038 95.1595 30.6333C95.0045 30.4593 94.7825 30.3758 94.4972 30.3758C94.2118 30.3758 93.9828 30.4628 93.8101 30.6402C93.6375 30.8177 93.553 31.0717 93.553 31.3988V33.302C93.553 33.4377 93.5072 33.5491 93.4156 33.6395C93.324 33.73 93.2077 33.7717 93.0703 33.7717C92.9364 33.7717 92.8272 33.7265 92.7321 33.6395C92.6405 33.5525 92.5947 33.4377 92.5947 33.302V30.0313Z" fill="#EF4123"/>
<path d="M101.289 33.803C101.113 33.803 100.955 33.7821 100.807 33.7404C100.659 33.6986 100.532 33.629 100.423 33.5385C100.313 33.4446 100.232 33.3193 100.172 33.1662C100.113 33.0131 100.084 32.8218 100.084 32.5921V30.4175H99.9259C99.8096 30.4175 99.711 30.3792 99.6335 30.2992C99.5524 30.2226 99.5137 30.1252 99.5137 30.0104C99.5137 29.8955 99.5524 29.7981 99.6335 29.7216C99.711 29.645 99.8096 29.6033 99.9259 29.6033H100.084V28.8969C100.084 28.7647 100.13 28.6569 100.222 28.5629C100.313 28.4724 100.43 28.4272 100.567 28.4272C100.697 28.4272 100.81 28.4724 100.905 28.5629C101 28.6534 101.043 28.7647 101.043 28.8969V29.6033H101.797C101.913 29.6033 102.012 29.6415 102.093 29.7216C102.174 29.8016 102.216 29.8955 102.216 30.0104C102.216 30.1252 102.174 30.2226 102.093 30.2992C102.012 30.3792 101.913 30.4175 101.797 30.4175H101.043V32.446C101.043 32.6304 101.089 32.7591 101.177 32.8427C101.265 32.9227 101.391 32.9644 101.557 32.9644C101.617 32.9644 101.666 32.961 101.709 32.954C101.751 32.947 101.779 32.9436 101.797 32.9436C101.902 32.9436 101.997 32.9818 102.078 33.0584C102.16 33.1349 102.202 33.2254 102.202 33.3367C102.202 33.4237 102.177 33.5038 102.128 33.5664C102.079 33.6325 102.019 33.6777 101.948 33.7021C101.842 33.7369 101.737 33.7647 101.635 33.7856C101.532 33.8065 101.416 33.803 101.289 33.803Z" fill="#EF4123"/>
<path d="M104.351 33.8204C104.154 33.8204 103.967 33.7926 103.787 33.7369C103.608 33.6813 103.449 33.6012 103.315 33.4934C103.181 33.3855 103.072 33.2533 102.991 33.0932C102.91 32.9332 102.868 32.7488 102.868 32.54V32.5261C102.868 32.2999 102.91 32.1051 102.995 31.9381C103.079 31.771 103.195 31.6319 103.347 31.524C103.498 31.4161 103.678 31.3326 103.893 31.277C104.108 31.2213 104.34 31.1934 104.594 31.1934C104.83 31.1934 105.038 31.2074 105.211 31.2387C105.383 31.27 105.556 31.3117 105.718 31.3639V31.263C105.718 30.9673 105.63 30.7411 105.454 30.5915C105.277 30.4384 105.02 30.3653 104.682 30.3653C104.495 30.3653 104.33 30.3793 104.178 30.4071C104.027 30.4349 103.886 30.4767 103.755 30.5289C103.696 30.5428 103.646 30.5532 103.604 30.5532C103.495 30.5532 103.4 30.515 103.319 30.4384C103.238 30.3619 103.199 30.2714 103.199 30.16C103.199 30.0731 103.224 29.993 103.273 29.9234C103.322 29.8573 103.386 29.8086 103.46 29.7843C103.66 29.7112 103.865 29.652 104.08 29.6068C104.291 29.5616 104.534 29.5407 104.809 29.5407C105.432 29.5407 105.894 29.6938 106.197 30.0035C106.496 30.2992 106.648 30.7272 106.648 31.2804V33.3159C106.648 33.4481 106.602 33.556 106.514 33.6395C106.422 33.7265 106.313 33.7683 106.183 33.7683C106.046 33.7683 105.933 33.7265 105.845 33.6465C105.757 33.5664 105.714 33.4725 105.714 33.3681V33.2115C105.573 33.3786 105.39 33.5212 105.168 33.6395C104.943 33.7613 104.672 33.8204 104.351 33.8204ZM104.573 28.904C104.467 28.9909 104.372 29.0501 104.284 29.0779C104.196 29.1058 104.097 29.1162 103.988 29.1162C103.928 29.1162 103.879 29.1023 103.837 29.0779C103.794 29.0536 103.773 29.0118 103.773 28.9596C103.773 28.9074 103.805 28.8448 103.868 28.7717L104.393 28.1211C104.45 28.048 104.513 27.9923 104.583 27.9541C104.65 27.9158 104.742 27.8949 104.851 27.8949H105.137C105.246 27.8949 105.337 27.9158 105.408 27.9541C105.475 27.9923 105.538 28.048 105.598 28.1211L106.119 28.7717C106.183 28.8448 106.215 28.9074 106.215 28.9596C106.215 29.0118 106.193 29.0501 106.148 29.0779C106.102 29.1058 106.049 29.1162 105.986 29.1162C105.876 29.1162 105.774 29.1023 105.69 29.0779C105.605 29.0536 105.506 28.9944 105.401 28.904L104.989 28.5525L104.573 28.904ZM104.619 33.1315C104.777 33.1315 104.925 33.1106 105.063 33.0689C105.2 33.0271 105.316 32.968 105.415 32.8879C105.514 32.8114 105.591 32.7175 105.647 32.6096C105.704 32.5017 105.735 32.3799 105.735 32.2442V31.9624C105.612 31.9137 105.471 31.8754 105.313 31.8441C105.154 31.8128 104.974 31.7989 104.784 31.7989C104.467 31.7989 104.224 31.858 104.055 31.9798C103.886 32.1016 103.801 32.2686 103.801 32.4878V32.5017C103.801 32.7001 103.879 32.8532 104.03 32.9645C104.185 33.0758 104.383 33.1315 104.619 33.1315ZM106.496 28.128C106.387 28.128 106.289 28.1141 106.204 28.0898C106.12 28.0619 106.031 28.0063 105.943 27.9158L105.404 27.4147C105.313 27.3382 105.27 27.2582 105.27 27.1816C105.27 27.1468 105.288 27.1086 105.323 27.0738C105.359 27.0355 105.404 27.0042 105.457 26.9763C105.514 26.9485 105.573 26.9241 105.644 26.9067C105.711 26.8893 105.778 26.8789 105.841 26.8789C106 26.8789 106.127 26.9555 106.222 27.1051L106.673 27.794C106.687 27.8218 106.704 27.8497 106.718 27.881C106.733 27.9123 106.743 27.9401 106.743 27.968C106.743 28.0724 106.662 28.128 106.496 28.128Z" fill="#EF4123"/>
<path d="M107.797 30.0313C107.797 29.8956 107.842 29.7808 107.931 29.6903C108.019 29.5999 108.135 29.5546 108.272 29.5546C108.41 29.5546 108.526 29.5999 108.618 29.6903C108.709 29.7808 108.755 29.8956 108.755 30.0313V30.2262C108.822 30.1322 108.896 30.0418 108.977 29.9583C109.058 29.8747 109.146 29.7982 109.252 29.7321C109.354 29.666 109.47 29.6103 109.6 29.572C109.731 29.5338 109.875 29.5129 110.034 29.5129C110.333 29.5129 110.59 29.579 110.802 29.7112C111.013 29.8434 111.175 30.0209 111.285 30.2401C111.454 30.0209 111.651 29.8434 111.88 29.7112C112.109 29.579 112.38 29.5129 112.697 29.5129C113.162 29.5129 113.522 29.6486 113.779 29.9235C114.036 30.1983 114.163 30.588 114.163 31.0926V33.302C114.163 33.4377 114.117 33.5491 114.029 33.6395C113.937 33.73 113.825 33.7717 113.687 33.7717C113.55 33.7717 113.434 33.7265 113.342 33.6395C113.25 33.5525 113.205 33.4377 113.205 33.302V31.3848C113.205 31.0543 113.131 30.8038 112.983 30.6333C112.835 30.4628 112.627 30.3758 112.356 30.3758C112.084 30.3758 111.869 30.4628 111.707 30.6367C111.542 30.8107 111.461 31.0647 111.461 31.3988V33.302C111.461 33.4377 111.415 33.5491 111.323 33.6395C111.232 33.73 111.119 33.7717 110.985 33.7717C110.848 33.7717 110.731 33.7265 110.64 33.6395C110.548 33.5525 110.502 33.4377 110.502 33.302V31.3744C110.502 31.0438 110.428 30.7968 110.28 30.6263C110.132 30.4558 109.925 30.3723 109.653 30.3723C109.382 30.3723 109.167 30.4628 109.002 30.6472C108.839 30.8316 108.755 31.0821 108.755 31.3988V33.302C108.755 33.4377 108.709 33.5491 108.618 33.6395C108.526 33.73 108.41 33.7717 108.272 33.7717C108.138 33.7717 108.029 33.7265 107.934 33.6395C107.842 33.5525 107.797 33.4377 107.797 33.302V30.0313Z" fill="#EF4123"/>
</g>
</g>
<defs>
<radialGradient id="paint0_radial_541_21249" cx="0" cy="0" r="1" gradientUnits="userSpaceOnUse" gradientTransform="translate(22.421 8.06186) scale(12.6168 12.4606)">
<stop stop-color="#9E0B0F"/>
<stop offset="0.1599" stop-color="#B91319"/>
<stop offset="0.3231" stop-color="#CE181F"/>
<stop offset="0.4857" stop-color="#DE1A22"/>
<stop offset="0.6456" stop-color="#E81C23"/>
<stop offset="0.8" stop-color="#ED1C24"/>
</radialGradient>
<radialGradient id="paint1_radial_541_21249" cx="0" cy="0" r="1" gradientUnits="userSpaceOnUse" gradientTransform="translate(33.7153 15.4381) rotate(0.790156) scale(12.6572 12.5005)">
<stop offset="0.3" stop-color="#9E0B0F"/>
<stop offset="0.4399" stop-color="#B91319"/>
<stop offset="0.5827" stop-color="#CE181F"/>
<stop offset="0.7249" stop-color="#DE1A22"/>
<stop offset="0.8649" stop-color="#E81C23"/>
<stop offset="1" stop-color="#ED1C24"/>
</radialGradient>
<radialGradient id="paint2_radial_541_21249" cx="0" cy="0" r="1" gradientUnits="userSpaceOnUse" gradientTransform="translate(25.0545 1.50355) scale(27.0053 26.6708)">
<stop offset="0.35" stop-color="#ED1C24"/>
<stop offset="1" stop-color="#F37021"/>
</radialGradient>
<radialGradient id="paint3_radial_541_21249" cx="0" cy="0" r="1" gradientUnits="userSpaceOnUse" gradientTransform="translate(4.0425 24.0818) scale(9.47568 9.35832)">
<stop offset="0.3" stop-color="#ED1C24"/>
<stop offset="1" stop-color="#9E0B0F"/>
</radialGradient>
<clipPath id="clip0_541_21249">
<rect width="119" height="35" fill="white"/>
</clipPath>
</defs>
</svg>
