<svg width="251" height="51" viewBox="0 0 251 51" fill="none" xmlns="http://www.w3.org/2000/svg">
<g clip-path="url(#clip0_535_11478)">
<path fill-rule="evenodd" clip-rule="evenodd" d="M20.4401 0.0498047C3.78014 5.5298 -3.52986 26.1598 1.63014 32.9198C3.38014 33.4998 5.34014 33.9898 7.40014 34.2198C3.87014 29.4798 4.59014 25.1298 6.16014 20.9398C6.16014 27.6198 9.05014 31.4998 13.1901 34.3098C15.3101 34.0598 17.5301 33.8098 18.9401 33.1498C10.6001 28.9098 6.51014 12.9698 20.4401 0.0498047Z" fill="#FF9900"/>
<path fill-rule="evenodd" clip-rule="evenodd" d="M1.63037 32.92C14.7104 44.61 35.8504 40.87 39.1204 33.03C38.8604 31.27 38.1304 29.01 37.2204 27.13C34.9404 32.3 30.9704 34.02 26.4804 35.08C32.2704 31.74 34.2604 27.31 34.6304 22.31C33.5004 20.43 31.8904 18.61 30.6704 17.76C31.1604 27.11 19.7704 38.51 1.63037 32.91V32.92Z" fill="#FF9900"/>
<path fill-rule="evenodd" clip-rule="evenodd" d="M39.1202 33.0199C42.7002 15.8599 28.8702 -1.0301 20.4402 0.0499048C19.0402 1.1499 17.7302 2.5999 16.5202 4.3799C22.3902 3.6899 25.7002 6.4999 28.5402 9.9599C22.7502 6.6199 17.9502 7.1799 13.4502 9.3599C12.5502 11.3399 11.8102 13.2099 11.6602 14.7099C19.5102 9.60991 34.9002 14.5099 39.1202 33.0199Z" fill="#FF9900"/>
<path fill-rule="evenodd" clip-rule="evenodd" d="M49.02 27.6899H58.94C63.23 27.6899 66.63 30.9799 66.63 34.6299V43.4599C66.63 47.9999 62.16 50.2799 58.47 50.2799H46.29V30.0499C46.29 28.8699 47.72 27.6799 49 27.6799L49.02 27.6899ZM51.36 30.5799H56.76C59.75 30.5799 61.92 32.7399 61.92 35.7399V42.1399C61.92 45.5299 59.79 47.2999 56.76 47.2999H51.36V30.5899V30.5799Z" fill="#005596"/>
<path fill-rule="evenodd" clip-rule="evenodd" d="M75.9198 27.31H81.9398C86.1498 27.31 89.5498 30.6301 89.5498 34.7701V42.5401C89.5498 46.76 86.4698 50.35 82.6198 50.35H76.0598C71.2498 50.35 68.5498 46.8801 68.5498 42.43V34.67C68.5498 31.18 71.0198 27.39 75.9198 27.3V27.31ZM77.3598 30.1901H80.6598C82.2798 30.1901 84.5298 32.08 84.5298 34.5V43.16C84.5298 45.58 82.3298 47.55 80.7098 47.55H77.4098C75.7898 47.55 73.6298 45.57 73.6298 43.16V34.5C73.6298 32.08 75.7398 30.1901 77.3598 30.1901Z" fill="#005596"/>
<path fill-rule="evenodd" clip-rule="evenodd" d="M119.79 27.31H125.63C130.01 27.27 132.77 30.58 132.62 34.7701V35.4901H128.16V34.51C128.16 32.09 125.97 30.2001 124.39 30.2001H121.18C119.6 30.2001 117.55 32.09 117.55 34.51V43.17C117.55 45.59 119.65 47.5601 121.23 47.5601H124.44C124.91 47.5801 127.2 47.25 128.16 46.03V41.37H123.47V37.87H132.62V47.98C131.53 49.15 129.08 50.4 126.29 50.35H119.92C115.25 50.35 112.63 46.8801 112.63 42.43V34.67C112.63 31.18 115.54 27.43 119.79 27.3V27.31Z" fill="#005596"/>
<path fill-rule="evenodd" clip-rule="evenodd" d="M94.9901 50.3499H91.3701V30.2499C91.3701 28.8499 92.5001 27.6999 93.9001 27.6699H93.9101H93.9501H94.9901H97.1801L107 42.9199V27.6799H110.85V50.3399H105.7L94.9901 33.6499V50.3399V50.3499Z" fill="#005596"/>
<path fill-rule="evenodd" clip-rule="evenodd" d="M149.61 22.4599C153.07 31.6899 156.52 40.9299 159.98 50.1599H154.57C153.55 47.1899 152.53 44.2099 151.52 41.2399H140.98C140 44.2299 139.01 47.2199 138.03 50.1999H133.75C136.71 41.8699 139.66 33.5399 142.62 25.2099C143.08 23.9299 144.39 22.4699 146.29 22.4299C147.4 22.4299 148.51 22.4499 149.62 22.4599H149.61ZM146.2 26.8299L148.3 32.4399L150.4 38.0499H142.01L144.11 32.4399L146.21 26.8299H146.2Z" fill="#005596"/>
<path fill-rule="evenodd" clip-rule="evenodd" d="M154.46 20.03C156 20.03 157.25 21.28 157.25 22.82C157.25 24.36 156 25.61 154.46 25.61C152.92 25.61 151.67 24.36 151.67 22.82C151.67 21.28 152.92 20.03 154.46 20.03ZM154.46 20.57C155.7 20.57 156.71 21.58 156.71 22.82C156.71 24.06 155.7 25.07 154.46 25.07C153.22 25.07 152.21 24.06 152.21 22.82C152.21 21.58 153.22 20.57 154.46 20.57Z" fill="#221F1F"/>
<path d="M155.94 24.5499H155.38L154.36 23.2099H153.87V24.5499H153.44V21.1799H154.27C154.46 21.1799 154.61 21.1899 154.74 21.2099C154.87 21.2299 154.98 21.2799 155.1 21.3599C155.21 21.4399 155.3 21.5299 155.37 21.6499C155.44 21.7699 155.47 21.9199 155.47 22.0899C155.47 22.3399 155.41 22.5399 155.29 22.7099C155.17 22.8799 155.01 22.9999 154.8 23.0799L155.95 24.5499H155.94ZM155.01 22.1299C155.01 22.0299 154.99 21.9399 154.96 21.8699C154.93 21.7899 154.87 21.7299 154.8 21.6799C154.74 21.6399 154.67 21.6099 154.59 21.5899C154.51 21.5699 154.41 21.5599 154.29 21.5599H153.86V22.8299H154.24C154.36 22.8299 154.47 22.8199 154.57 22.7999C154.67 22.7799 154.75 22.7299 154.82 22.6599C154.88 22.5999 154.93 22.5199 154.96 22.4299C154.99 22.3399 155 22.2399 155 22.1199L155.01 22.1299Z" fill="#221F1F"/>
<path d="M174.01 27.0699V35.0199H176.07C177.24 35.0199 178.2 34.9799 178.95 34.9099C179.7 34.8399 180.37 34.6799 180.94 34.4299C181.79 34.0099 182.4 33.3899 182.79 32.5499C183.11 31.8399 183.27 30.9199 183.27 29.7899C183.27 28.8299 183.11 27.9399 182.79 27.1199C182.47 26.2999 181.97 25.6899 181.28 25.2999C180.73 25.0099 180.11 24.8199 179.41 24.7499C178.71 24.6799 177.83 24.6399 176.75 24.6399C176.43 24.6399 176.13 24.6399 175.84 24.6599C175.55 24.6699 175.24 24.7199 174.9 24.7899C174.49 25.0099 174.21 25.3299 174.08 25.7499C174.06 25.9699 174.04 26.2099 174.03 26.4699C174.02 26.7299 174.01 26.9299 174.01 27.0799V27.0699ZM177.16 49.6099H166.46V47.9899H167.42C167.69 47.9899 167.93 47.9799 168.14 47.9499C168.35 47.9299 168.75 47.8399 169.34 47.6899C169.73 47.6399 170.03 47.3499 170.23 46.8099C170.25 46.5599 170.27 46.3299 170.28 46.0899C170.29 45.8599 170.3 45.5599 170.3 45.1899V25.9699C170.3 25.4099 170 25.0099 169.39 24.7899C169.06 24.7899 168.51 24.7699 167.73 24.7199C166.95 24.6699 166.52 24.6499 166.46 24.6499V23.0299H178.87C180.42 23.0299 181.59 23.1299 182.37 23.3399C183.15 23.5499 183.86 23.8599 184.5 24.2799C185.3 24.8399 185.95 25.5699 186.44 26.4499C186.93 27.3299 187.18 28.2799 187.18 29.2899C187.18 31.1599 186.6 32.6699 185.43 33.8199C184.36 34.8799 182.93 35.4999 181.14 35.6999C183.08 35.7499 184.73 36.3099 186.08 37.3599C187.63 38.5899 188.41 40.2399 188.41 42.2899C188.41 43.0499 188.3 43.8199 188.08 44.5999C187.86 45.3699 187.53 46.0499 187.07 46.6299C186.61 47.2099 186.14 47.6599 185.66 47.9899C185.36 48.1899 184.77 48.4799 183.88 48.8699C183.54 49.0199 183.17 49.1299 182.77 49.2099C182.37 49.2799 182.03 49.3399 181.76 49.3899C180.73 49.5399 179.68 49.6099 178.61 49.6099H177.17H177.16ZM174.01 36.7899V45.3299C174.01 46.5299 174.14 47.2799 174.4 47.5599C174.66 47.8399 175.29 47.9799 176.27 47.9799H176.96C178.22 47.9799 179.27 47.9299 180.13 47.8299C180.99 47.7299 181.74 47.4699 182.38 47.0499C183.02 46.6299 183.5 45.9899 183.82 45.1399C184.14 44.2899 184.3 43.4299 184.3 42.5599C184.3 40.0899 183.58 38.4199 182.14 37.5599C181.11 36.9399 179.34 36.6299 176.82 36.6299C176.5 36.6299 175.97 36.6499 175.23 36.6999C174.49 36.7499 174.08 36.7699 174.01 36.7699V36.7899ZM205.42 38.1199L205.28 44.4499V46.0699C205.28 46.3899 205.33 46.6799 205.43 46.9499C205.53 47.2199 205.71 47.4199 205.96 47.5399C206.14 47.7399 206.37 47.8299 206.65 47.8299H207.06L208.02 47.3899C208.34 47.4599 208.5 47.6399 208.5 47.9099C208.29 48.5199 207.89 49.0199 207.3 49.3999C206.71 49.7799 206.08 49.9699 205.41 49.9699C204.6 49.9699 203.96 49.7299 203.48 49.2499C203 48.7699 202.66 48.0799 202.46 47.1699C201.73 48.1299 200.81 48.8699 199.72 49.3999C198.62 49.9299 197.48 50.1899 196.29 50.1899C194.87 50.1899 193.74 49.8499 192.9 49.1599C191.92 48.3699 191.43 47.2499 191.43 45.7699C191.43 43.6799 192.81 42.0099 195.58 40.7599C197.25 39.9999 199.48 39.4099 202.27 38.9899V36.4099C202.27 35.3799 201.89 34.6299 201.14 34.1599C200.52 33.7899 199.67 33.6099 198.57 33.6099C197.93 33.6099 197.36 33.6599 196.87 33.7599C196.38 33.8599 195.96 34.0499 195.62 34.3499C195.44 34.5499 195.35 34.7199 195.35 34.8699C195.49 35.1199 195.58 35.3099 195.62 35.4599C195.73 35.6799 195.85 35.9199 195.98 36.1799C196.11 36.4399 196.17 36.6899 196.17 36.9299C196.17 37.5399 195.99 37.9999 195.64 38.3099C195.29 38.6199 194.82 38.7699 194.25 38.7699C193.68 38.7699 193.23 38.5399 192.9 38.0899C192.57 37.6399 192.4 37.0799 192.4 36.4099C192.4 35.6199 192.65 34.9099 193.15 34.2699C193.58 33.7299 194.16 33.2799 194.86 32.9099C195.57 32.5399 196.26 32.2799 196.93 32.1399C197.6 31.9899 198.33 31.9199 199.11 31.9199C199.7 31.9199 200.27 31.9599 200.81 32.0299C201.35 32.0999 201.88 32.2399 202.4 32.4399C203.68 32.9599 204.53 33.6799 204.94 34.6099C205.26 35.3199 205.42 36.4899 205.42 38.1099V38.1199ZM202.27 40.4799C199.55 41.0699 197.97 41.4599 197.54 41.6599C195.71 42.4499 194.8 43.6999 194.8 45.4199C194.8 46.2799 195.08 46.9699 195.64 47.4999C196.2 48.0299 196.88 48.2899 197.68 48.2899C198.39 48.2899 199.09 48.0999 199.77 47.7199C200.46 47.3399 201.02 46.8399 201.45 46.2299C201.75 45.7599 201.96 45.2699 202.08 44.7599C202.21 44.2399 202.27 43.6999 202.27 43.1399V40.4899V40.4799ZM209.88 49.6099V48.2099H210.7C211.09 48.1599 211.43 48.1199 211.71 48.0999C212 48.0799 212.23 48.0199 212.41 47.9299C212.59 47.8399 212.68 47.5899 212.68 47.1799V36.9899C212.68 36.6499 212.68 36.3099 212.66 35.9999C212.65 35.6899 212.6 35.3899 212.52 35.0999C212.44 34.8199 212.13 34.6199 211.58 34.4899L209.87 34.4199V32.8799L215.84 32.5099V35.5999C216.59 34.1999 217.46 33.2099 218.46 32.6199C219.23 32.1499 220.11 31.9199 221.08 31.9199C222.05 31.9199 222.95 32.1699 223.77 32.6599C224.86 33.2999 225.62 34.2799 226.06 35.6099C226.21 36.0499 226.33 36.5599 226.41 37.1199C226.49 37.6799 226.53 38.3599 226.53 39.1499V47.6199C226.6 47.9099 226.8 48.1099 227.15 48.2099H229.28V49.6099H220.57V48.2799L221.05 48.3499C221.19 48.3499 221.39 48.3299 221.67 48.2799C221.94 48.2299 222.15 48.2099 222.29 48.2099C222.72 48.2099 223 48.1099 223.11 47.9199C223.13 47.8999 223.2 47.7699 223.32 47.5499C223.37 47.4499 223.39 47.2799 223.39 47.0299V38.9999C223.39 38.4399 223.36 37.9299 223.3 37.4899C223.24 37.0499 223.2 36.7399 223.18 36.5699C223.09 35.8599 222.74 35.2699 222.13 34.8199C221.52 34.3699 220.84 34.1399 220.09 34.1399C219.34 34.1399 218.68 34.3499 218.07 34.7799C217.45 35.2099 216.94 35.8099 216.53 36.5599C216.23 37.1399 216.04 37.7799 215.96 38.4399C215.88 39.1199 215.84 39.8999 215.84 40.7999V46.8799C215.84 47.1699 215.86 47.3999 215.91 47.5399C215.93 47.8499 216.21 48.0499 216.73 48.1199C217.14 48.1399 217.55 48.1699 217.96 48.1899H218.58V49.5899H209.87L209.88 49.6099ZM236.97 22.4299V40.8399L241.77 35.8299C242.09 35.5399 242.3 35.3299 242.39 35.1999C242.57 34.9499 242.66 34.6999 242.66 34.4299C242.66 34.1399 242.44 33.9499 241.99 33.8799C241.54 33.8099 241.2 33.7699 240.94 33.7699H239.84V32.5199H248.89V33.7699H248.41C247.45 33.7699 246.57 34.0199 245.77 34.5199C245.27 34.8199 244.55 35.4399 243.61 36.3899L241.48 38.5599L245.94 45.1199C246.72 46.2699 247.32 47.0299 247.76 47.3999C248.47 47.9899 249.37 48.2799 250.47 48.2799V49.6099H241.35V48.3499L243.19 48.2799L243.54 48.1199C243.54 48.1199 243.59 47.9899 243.61 47.7999C243.61 47.4799 243.59 47.2999 243.55 47.2399L243.06 46.5799L239.22 40.6899L236.96 42.8299V46.8799C236.96 47.2999 237.03 47.6199 237.16 47.8399C237.29 48.0599 237.44 48.1799 237.59 48.2099C237.74 48.2299 237.96 48.2499 238.22 48.2499C238.48 48.2499 238.69 48.2599 238.82 48.2899H239.56V49.6199H231.12V48.2899H231.94C232.31 48.2699 232.68 48.2399 233.07 48.2199C233.55 48.1499 233.81 47.9299 233.86 47.5599V26.1999C233.86 25.8599 233.83 25.5499 233.77 25.2799C233.71 25.0099 233.58 24.8099 233.36 24.6899C233.15 24.5699 232.81 24.4899 232.35 24.4499C231.89 24.4099 231.48 24.3799 231.1 24.3599H230.76V22.8099L236.93 22.4399L236.97 22.4299Z" fill="#221F1F"/>
</g>
<defs>
<clipPath id="clip0_535_11478">
<rect width="250.48" height="50.36" fill="white"/>
</clipPath>
</defs>
</svg>
