<svg width="200" height="80" viewBox="0 0 200 80" fill="none" xmlns="http://www.w3.org/2000/svg">
<g clip-path="url(#clip0_541_11597)">
<path d="M109.34 0C87.7 0 70.16 17.7 70.16 39.53C70.16 61.36 87.7 79.06 109.34 79.06C120 79.06 129.66 74.76 136.73 67.79C137.47 67.06 137.3 65.72 136.73 65.14L128.68 56.99C127.9 56.2 126.63 56.38 126.23 56.79C122.14 60.85 116.6 63.34 110.52 63.34C97.92 63.34 87.7 52.66 87.7 39.5C87.7 26.38 97.84 15.73 110.39 15.66C110.43 15.66 110.47 15.66 110.52 15.66C116.44 15.66 121.84 18.02 125.89 21.88C126.36 22.33 127.53 22.27 128.22 21.57L136.18 13.51C136.56 13.13 137.27 11.85 136.46 11C129.41 4.2 119.86 0 109.34 0ZM29.02 1.94C28.44 1.99 27.2 2.34 26.51 4.3C25.59 6.91 0.409976 74.3 0.409976 74.3C0.409976 74.3 -0.870024 76.96 1.07998 76.96H15.64C15.64 76.96 17.22 76.88 18.1 74.14L22.72 59.82H49.52L54.25 74.65C54.25 74.65 54.82 76.95 56.97 76.95H72.3C72.3 76.95 73.94 76.85 72.92 74.54C71.89 72.23 47.07 3.98 47.07 3.98C47.07 3.98 46.66 1.93 43.89 1.93H29.33C29.33 1.93 29.21 1.91 29.02 1.93V1.94ZM144.24 1.94C144.24 1.94 142.43 1.88 142.43 3.81V75.1C142.43 75.1 142.43 76.96 144.2 76.96H174.08C174.08 76.96 187.51 76.99 194.59 69.91C201.67 62.82 199.74 52.28 199.74 52.28C199.74 52.28 198.05 40.2 184.7 37.14C184.7 37.14 196.69 33.76 195.92 19.67C194.79 7.34 183.67 1.93 172.11 1.93H144.23L144.24 1.94ZM158.92 15.05H169.9C169.9 15.05 179.15 15.05 179.27 23.62C179.39 32.19 169.58 31.99 169.58 31.99H158.92V15.04V15.05ZM36.2 18.06L45.3 46.59H26.99L36.2 18.06ZM158.92 44.36H171.35C171.35 44.36 182.65 44.44 182.73 54.22C182.81 64 171.87 64 171.87 64H158.92V44.36Z" fill="#1F419B"/>
<path d="M124.58 39.49C124.58 41.26 124.23 43.01 123.56 44.65C122.88 46.29 121.89 47.77 120.64 49.02C119.39 50.27 117.91 51.26 116.27 51.94C114.64 52.62 112.88 52.97 111.12 52.97C109.36 52.97 107.6 52.62 105.97 51.94C104.34 51.26 102.85 50.27 101.6 49.02C100.35 47.77 99.3599 46.28 98.6799 44.65C97.9999 43.01 97.6499 41.26 97.6499 39.49C97.6499 37.72 97.9999 35.97 98.6799 34.33C99.3599 32.69 100.35 31.21 101.6 29.96C102.85 28.71 104.34 27.72 105.97 27.04C107.6 26.36 109.35 26.01 111.12 26.01C112.89 26.01 114.64 26.36 116.27 27.04C117.9 27.72 119.39 28.71 120.64 29.96C121.89 31.21 122.88 32.7 123.56 34.33C124.24 35.97 124.58 37.72 124.58 39.49Z" fill="#00AEEF"/>
</g>
<defs>
<clipPath id="clip0_541_11597">
<rect width="199.99" height="79.07" fill="white"/>
</clipPath>
</defs>
</svg>
