<svg width="260" height="70" viewBox="0 0 260 70" fill="none" xmlns="http://www.w3.org/2000/svg">
<path d="M79.2 17.6H74.5V41.4H79.2V17.6Z" fill="#1E4485"/>
<path d="M32.2999 18.2L18.8999 41.4H45.6999L32.2999 18.2Z" fill="#EC2227"/>
<path d="M4.3999 41.4H18.8999L11.5999 28.9L4.3999 41.4Z" fill="#EC2227"/>
<path d="M14.2002 24.3L20.1002 34.6L30.9002 15.9L25.0002 5.59998L14.2002 24.3Z" fill="#EC2227"/>
<path d="M58.7999 35.5L49.7999 17.6H44.3999L56.3999 41.4H61.0999L73.0999 17.6H67.6999L58.7999 35.5Z" fill="#1E4485"/>
<path d="M134.7 17.6L122.8 41.4H128.1L130.9 35.8H143.3L146.1 41.4H151.4L139.5 17.6H134.7ZM132.9 31.9L137.1 23.5L141.3 31.9H132.9Z" fill="#1E4485"/>
<path d="M187.4 17.6L175.5 41.4H180.8L183.6 35.8H196L198.8 41.4H204.1L192.2 17.6H187.4ZM185.6 31.9L189.8 23.5L194 31.9H185.6Z" fill="#1E4485"/>
<path d="M87.2 31.1H99.5V27.1H87.2V21.6H100.3V17.6H82.5V41.4H100.8V37.4H87.2V31.1Z" fill="#1E4485"/>
<path d="M102.6 21.6H109.8V41.4H114.6V21.6H121.7V17.6H102.6V21.6Z" fill="#1E4485"/>
<path d="M156.2 17.6H165.7C167.6 17.6 169 17.7 169.9 17.8C170.8 18 171.7 18.3 172.4 18.8C173.1 19.3 173.7 20 174.2 20.8C174.7 21.6 174.9 22.6 174.9 23.6C174.9 24.7 174.6 25.7 174 26.7C173.4 27.6 172.6 28.3 171.6 28.8C173 29.2 174.2 29.9 174.9 31C175.7 32 176.1 33.2 176.1 34.6C176.1 35.7 175.8 36.7 175.3 37.8C174.8 38.8 174.1 39.6 173.2 40.2C172.3 40.8 171.3 41.2 170 41.3C169.2 41.4 167.3 41.4 164.2 41.5H156.1V17.6H156.2ZM161 21.6V27.1H164.1C166 27.1 167.1 27.1 167.6 27C168.4 26.9 169.1 26.6 169.5 26.1C170 25.6 170.2 25 170.2 24.2C170.2 23.5 170 22.9 169.6 22.4C169.2 21.9 168.6 21.7 167.8 21.6C167.3 21.5 166 21.5 163.7 21.5L161 21.6ZM161 31V37.4H165.4C167.1 37.4 168.2 37.4 168.7 37.3C169.4 37.2 170 36.9 170.4 36.4C170.8 35.9 171.1 35.2 171.1 34.4C171.1 33.7 170.9 33.1 170.6 32.6C170.3 32.1 169.8 31.7 169.1 31.5C168.4 31.3 167 31.2 164.8 31.2H161V31Z" fill="#1E4485"/>
<path d="M252 17.6L242.6 27L252.4 41.4H246.6L239.1 30.5L236.1 33.5V41.4H231.3V17.6H236.1V27.6L246.1 17.6H252Z" fill="#1E4485"/>
<path d="M63.5 56.9C63.5 57.6 63.4 58.3 63.3 59C63.1 59.6 62.9 60.2 62.5 60.7C62.1 61.2 61.7 61.6 61.1 61.8C60.5 62.1 59.8 62.2 59 62.2C58.3 62.2 57.7 62.1 57.2 62C56.7 61.9 56.2 61.7 55.9 61.6V57.3H55V55.9H55.7V52.2C56.1 52 56.5 51.9 57 51.8C57.5 51.7 58.1 51.6 58.7 51.6C59.5 51.6 60.3 51.7 60.9 52C61.5 52.3 62 52.6 62.4 53.1C62.8 53.6 63 54.1 63.2 54.8C63.4 55.4 63.5 56.1 63.5 56.9ZM61 56.8C61 55.5 60.8 54.6 60.5 54C60.2 53.4 59.6 53.1 58.8 53.1C58.5 53.1 58.3 53.1 58.1 53.2V55.8H59.3V57.2H58.1V60.4C58.2 60.4 58.3 60.5 58.4 60.5C58.5 60.5 58.7 60.5 58.8 60.5C59.2 60.5 59.5 60.4 59.8 60.3C60.1 60.2 60.3 59.9 60.5 59.6C60.7 59.3 60.8 58.9 60.9 58.4C61 58.1 61 57.5 61 56.8Z" fill="#1E4485"/>
<path d="M72.8999 56.9C72.8999 57.6 72.7999 58.3 72.6999 59C72.5999 59.6 72.2999 60.2 71.9999 60.7C71.6999 61.2 71.2999 61.6 70.6999 61.8C70.1999 62.1 69.5999 62.2 68.8999 62.2C68.1999 62.2 67.5999 62.1 67.0999 61.8C66.5999 61.5 66.1999 61.1 65.7999 60.7C65.4999 60.2 65.1999 59.7 65.0999 59C64.9999 58.4 64.8999 57.7 64.8999 56.9C64.8999 56.2 64.9999 55.5 65.0999 54.8C65.1999 54.2 65.4999 53.6 65.7999 53.1C66.0999 52.6 66.4999 52.2 67.0999 52C67.5999 51.7 68.1999 51.6 68.8999 51.6C69.5999 51.6 70.1999 51.7 70.6999 52C71.1999 52.3 71.5999 52.7 71.9999 53.1C72.2999 53.6 72.5999 54.1 72.6999 54.8C72.7999 55.5 72.8999 56.2 72.8999 56.9ZM70.3999 51.1L68.7999 50L67.1999 51.1L66.5999 50.5L68.1999 48.9C68.3999 48.7 68.5999 48.6 68.8999 48.6C69.1999 48.6 69.3999 48.7 69.5999 48.9L71.1999 50.5L70.3999 51.1ZM70.3999 56.8C70.3999 56.4 70.3999 55.9 70.2999 55.5C70.2999 55.1 70.1999 54.7 70.0999 54.3C69.9999 54 69.7999 53.7 69.5999 53.5C69.3999 53.3 69.0999 53.2 68.7999 53.2C68.4999 53.2 68.1999 53.3 67.9999 53.5C67.7999 53.7 67.5999 54 67.4999 54.3C67.3999 54.6 67.2999 55 67.2999 55.5C67.2999 56 67.1999 56.4 67.1999 56.8C67.1999 57.2 67.1999 57.7 67.2999 58.1C67.2999 58.5 67.3999 58.9 67.4999 59.3C67.5999 59.6 67.7999 59.9 67.9999 60.1C68.1999 60.3 68.4999 60.4 68.7999 60.4C69.0999 60.4 69.3999 60.3 69.5999 60.1C69.7999 59.9 69.9999 59.6 70.0999 59.3C70.1999 59 70.2999 58.6 70.2999 58.1C70.3999 57.7 70.3999 57.3 70.3999 56.8Z" fill="#1E4485"/>
<path d="M80.5 62.0999L77 56.2999C76.8 55.9999 76.7 55.7999 76.6 55.5999C76.5 55.4999 76.5 55.3999 76.5 55.2999C76.5 55.3999 76.5 55.4999 76.5 55.5999C76.5 55.6999 76.5 55.8 76.5 56C76.5 56.1 76.5 56.3 76.5 56.4V62.0999H74.5V51.7H76.6L79.8 57C79.9 57.1 79.9 57.3 80 57.4C80.1 57.5 80.1 57.6 80.2 57.7L80.3 58C80.3 57.9 80.3 57.8 80.3 57.7C80.3 57.6 80.3 57.5 80.3 57.4C80.3 57.3 80.3 57.2 80.3 57V51.7999H82.4V62.0999H80.5Z" fill="#1E4485"/>
<path d="M91.6 61.6C91.3 61.8 90.9 61.9 90.4 62C89.9 62.1 89.4 62.1 88.7 62.1C87.9 62.1 87.2 62 86.7 61.7C86.1 61.5 85.6 61.1 85.2 60.6C84.8 60.1 84.5 59.6 84.3 58.9C84.1 58.2 84 57.5 84 56.7C84 55.9 84.1 55.2 84.3 54.6C84.5 54 84.8 53.4 85.2 52.9C85.6 52.4 86.1 52.1 86.7 51.8C87.3 51.5 88 51.4 88.7 51.4C89.3 51.4 89.8 51.5 90.3 51.6C90.7 51.7 91.1 51.9 91.5 52L90.8 53.5C90.6 53.4 90.4 53.3 90.1 53.2C89.8 53.1 89.5 53.1 89 53.1C88.2 53.1 87.5 53.4 87.1 54C86.7 54.6 86.4 55.5 86.4 56.7C86.4 57.9 86.6 58.8 87 59.4C87.4 60 87.9 60.3 88.5 60.3C88.7 60.3 88.9 60.3 89 60.3C89.1 60.3 89.2 60.2 89.3 60.2V57.3H88.1V56H91.6V61.6Z" fill="#1E4485"/>
<path d="M102.5 62.0999V57.5999H99.9V62.0999H97.5V51.7H99.9V56H102.5V51.7H104.9V62L102.5 62.0999Z" fill="#1E4485"/>
<path d="M112.6 62.1L112 59.9H108.9L108.2 62.1H106L109.4 51.8H111.8L115.1 62.1H112.6ZM110 51L108.1 48.9C108.1 48.8 108.3 48.7 108.4 48.6C108.6 48.5 108.8 48.5 109 48.5C109.2 48.5 109.4 48.5 109.7 48.6C109.9 48.7 110.1 48.7 110.3 48.8L111.3 50.9L110 51ZM110.7 55.1C110.6 54.9 110.6 54.8 110.6 54.6C110.6 54.5 110.5 54.3 110.5 54.2C110.5 54.1 110.5 54 110.5 53.9C110.5 54 110.5 54.1 110.4 54.2C110.4 54.3 110.4 54.4 110.3 54.6C110.3 54.7 110.2 54.9 110.2 55.1L109.2 58.5H111.6L110.7 55.1Z" fill="#1E4485"/>
<path d="M122.1 62.0999L118.7 56.2999C118.5 55.9999 118.4 55.7999 118.3 55.5999C118.2 55.4999 118.2 55.3999 118.2 55.2999C118.2 55.3999 118.2 55.4999 118.2 55.5999C118.2 55.6999 118.2 55.8 118.2 56C118.2 56.1 118.2 56.3 118.2 56.4V62.0999H116.2V51.7H118.3L121.5 57C121.6 57.1 121.6 57.3 121.7 57.4C121.8 57.5 121.8 57.6 121.9 57.7L122 58C122 57.9 122 57.8 122 57.7C122 57.6 122 57.5 122 57.4C122 57.3 122 57.2 122 57V51.7999H124.1V62.0999H122.1Z" fill="#1E4485"/>
<path d="M130.9 62.0999V57.5999H128.3V62.0999H125.9V51.7H128.3V56H130.9V51.7H133.3V62L130.9 62.0999Z" fill="#1E4485"/>
<path d="M145.4 61.6C144.9 62 144.1 62.2 143.1 62.2C142.4 62.2 141.8 62.1 141.3 61.8C140.8 61.5 140.4 61.1 140 60.6C139.7 60.1 139.4 59.5 139.3 58.9C139.1 58.3 139.1 57.6 139.1 56.9C139.1 56.2 139.2 55.5 139.3 54.9C139.5 54.3 139.7 53.7 140 53.2C140.3 52.7 140.8 52.3 141.3 52C141.8 51.7 142.4 51.6 143.1 51.6C143.6 51.6 144 51.7 144.4 51.8C144.8 51.9 145.1 52.1 145.3 52.2L144.8 53.7C144.7 53.6 144.5 53.5 144.3 53.5C144.1 53.4 143.9 53.4 143.6 53.4C143.2 53.4 142.9 53.5 142.6 53.7C142.3 53.9 142.1 54.2 142 54.5C141.8 54.8 141.7 55.2 141.6 55.6C141.5 56 141.5 56.5 141.5 56.9C141.5 57.3 141.5 57.8 141.6 58.2C141.7 58.6 141.8 59 142 59.3C142.2 59.6 142.4 59.9 142.6 60.1C142.9 60.3 143.2 60.4 143.6 60.4C143.9 60.4 144.1 60.4 144.3 60.3C144.5 60.2 144.6 60.2 144.8 60.1L145.4 61.6Z" fill="#1E4485"/>
<path d="M153.9 59C153.9 59.5 153.8 59.9 153.6 60.3C153.4 60.7 153.2 61 152.9 61.3C152.6 61.6 152.2 61.8 151.8 61.9C151.4 62 150.9 62.1 150.4 62.1C149.9 62.1 149.4 62 149 61.9C148.6 61.8 148.2 61.5 147.9 61.3C147.6 61 147.3 60.7 147.2 60.3C147.1 59.9 146.9 59.5 146.9 59V51.7H149.3V59C149.3 59.5 149.4 59.8 149.7 60C149.9 60.2 150.2 60.3 150.6 60.3C150.9 60.3 151.2 60.2 151.5 60C151.7 59.8 151.9 59.4 151.9 59V51.8H154.1V59H153.9ZM150.2 51L148.3 48.9C148.3 48.8 148.5 48.7 148.6 48.6C148.8 48.5 149 48.5 149.2 48.5C149.4 48.5 149.6 48.5 149.9 48.6C150.1 48.7 150.3 48.7 150.5 48.8L151.5 50.9L150.2 51Z" fill="#1E4485"/>
<path d="M161.8 62.0999L158.4 56.2999C158.2 55.9999 158.1 55.7999 158 55.5999C158 55.4999 157.9 55.3999 157.9 55.2999C157.9 55.3999 157.9 55.4999 157.9 55.5999C157.9 55.6999 157.9 55.8 157.9 56C157.9 56.2 157.9 56.3 157.9 56.4V62.0999H155.9V51.7H158L161.2 57C161.3 57.1 161.3 57.3 161.4 57.4C161.5 57.5 161.5 57.6 161.6 57.7L161.8 58C161.8 57.9 161.8 57.8 161.8 57.7C161.8 57.6 161.8 57.5 161.8 57.4C161.8 57.3 161.8 57.2 161.8 57V51.7999H163.9V62.0999H161.8Z" fill="#1E4485"/>
<path d="M172.9 61.6C172.6 61.8 172.2 61.9 171.7 62C171.3 62.1 170.7 62.1 170 62.1C169.2 62.1 168.5 62 168 61.7C167.4 61.5 166.9 61.1 166.5 60.6C166.1 60.1 165.8 59.6 165.6 58.9C165.4 58.2 165.3 57.5 165.3 56.7C165.3 55.9 165.4 55.2 165.6 54.6C165.8 54 166.1 53.4 166.5 52.9C166.9 52.4 167.4 52.1 168 51.8C168.6 51.5 169.3 51.4 170 51.4C170.6 51.4 171.1 51.5 171.6 51.6C172 51.7 172.4 51.9 172.8 52L172.1 53.5C171.9 53.4 171.7 53.3 171.4 53.2C171.1 53.1 170.8 53.1 170.3 53.1C169.5 53.1 168.8 53.4 168.4 54C168 54.6 167.7 55.5 167.7 56.7C167.7 57.9 167.9 58.8 168.3 59.4C168.7 60 169.2 60.3 169.8 60.3C170 60.3 170.2 60.3 170.3 60.3C170.4 60.3 170.5 60.2 170.6 60.2V57.3H169.4V56H172.9V61.6Z" fill="#1E4485"/>
<path d="M183.8 62.0999L181.3 57V62.0999H178.9V51.7H181.3V56.2999L183.9 51.7H186.4L183.5 56.4L186.6 62L183.8 62.0999Z" fill="#1E4485"/>
<path d="M192.7 62.0999V57.5999H190.1V62.0999H187.7V51.7H190.1V56H192.7V51.7H195.1V62L192.7 62.0999Z" fill="#1E4485"/>
<path d="M202.8 62.1L202.2 59.9H199L198.3 62.1H196.1L199.5 51.8H201.9L205.2 62.1H202.8ZM200.9 55.1C200.8 54.9 200.8 54.8 200.8 54.6C200.8 54.5 200.7 54.3 200.7 54.2C200.7 54.1 200.7 54 200.7 53.9C200.7 54 200.7 54.1 200.6 54.2C200.6 54.3 200.6 54.4 200.5 54.6C200.5 54.7 200.4 54.9 200.4 55.1L199.4 58.5H201.8L200.9 55.1ZM201.2 51H199.9L200.9 48.9C201.1 48.8 201.3 48.7 201.5 48.7C201.7 48.6 201.9 48.6 202.2 48.6C202.4 48.6 202.6 48.6 202.8 48.7C203 48.8 203.1 48.9 203.1 49L201.2 51Z" fill="#1E4485"/>
<path d="M210 53.4001V62.1H207.6V53.4001H205.8V51.8H211.8V53.4001H210Z" fill="#1E4485"/>
<path d="M221.6 62.1H219.5L216.4 51.8H219L220.4 57.8C220.4 57.9 220.5 58.1001 220.5 58.2001C220.5 58.3001 220.6 58.5 220.6 58.6C220.6 58.7 220.7 58.9 220.7 59C220.7 58.9 220.7 58.7 220.8 58.6C220.8 58.5 220.8 58.3001 220.9 58.2001C220.9 58.1001 221 57.9 221 57.8L222.5 51.8H224.8L221.6 62.1Z" fill="#1E4485"/>
<path d="M233.4 56.9C233.4 57.6 233.3 58.3 233.2 59C233 59.6 232.8 60.2 232.5 60.7C232.2 61.2 231.8 61.6 231.2 61.8C230.7 62.1 230.1 62.2 229.4 62.2C228.7 62.2 228.1 62.1 227.6 61.8C227.1 61.5 226.7 61.1 226.3 60.7C226 60.2 225.7 59.7 225.6 59C225.4 58.4 225.4 57.7 225.4 56.9C225.4 56.2 225.5 55.5 225.6 54.8C225.7 54.2 226 53.6 226.3 53.1C226.6 52.6 227 52.2 227.6 52C228.1 51.7 228.7 51.6 229.4 51.6C230.1 51.6 230.7 51.7 231.2 52C231.7 52.3 232.1 52.7 232.5 53.1C232.8 53.6 233.1 54.1 233.2 54.8C233.3 55.5 233.4 56.2 233.4 56.9ZM230.9 56.8C230.9 56.4 230.9 55.9 230.8 55.5C230.7 55.1 230.7 54.7 230.6 54.3C230.5 54 230.3 53.7 230.1 53.5C229.9 53.3 229.6 53.2 229.3 53.2C229 53.2 228.7 53.3 228.5 53.5C228.3 53.7 228.1 54 228 54.3C227.9 54.6 227.8 55 227.8 55.5C227.8 55.9 227.7 56.4 227.7 56.8C227.7 57.2 227.7 57.7 227.8 58.1C227.8 58.5 227.9 58.9 228 59.3C228.1 59.6 228.3 59.9 228.5 60.1C228.7 60.3 229 60.4 229.3 60.4C229.6 60.4 229.9 60.3 230.1 60.1C230.3 59.9 230.5 59.6 230.6 59.3C230.7 59 230.8 58.6 230.8 58.1C230.9 57.7 230.9 57.3 230.9 56.8Z" fill="#1E4485"/>
<path d="M241 62.0999L237.6 56.2999C237.4 55.9999 237.3 55.7999 237.2 55.5999C237.2 55.4999 237.1 55.3999 237.1 55.2999C237.1 55.3999 237.1 55.4999 237.1 55.5999C237.1 55.6999 237.1 55.8 237.1 56C237.1 56.2 237.1 56.3 237.1 56.4V62.0999H235.1V51.7H237.2L240.4 57C240.5 57.1 240.5 57.3 240.6 57.4C240.7 57.5 240.7 57.6 240.8 57.7L241 58C241 57.9 241 57.8 241 57.7C241 57.6 241 57.5 241 57.4C241 57.3 241 57.2 241 57V51.7999H243.1V62.0999H241Z" fill="#1E4485"/>
<path d="M252.1 61.6C251.8 61.8 251.4 61.9 250.9 62C250.5 62.1 249.9 62.1 249.2 62.1C248.4 62.1 247.7 62 247.2 61.7C246.6 61.5 246.1 61.1 245.7 60.6C245.3 60.1 245 59.6 244.8 58.9C244.6 58.2 244.5 57.5 244.5 56.7C244.5 55.9 244.6 55.2 244.8 54.6C245 54 245.3 53.4 245.7 52.9C246.1 52.4 246.6 52.1 247.2 51.8C247.8 51.5 248.5 51.4 249.2 51.4C249.8 51.4 250.3 51.5 250.8 51.6C251.2 51.7 251.6 51.9 252 52L251.3 53.5C251.1 53.4 250.9 53.3 250.6 53.2C250.3 53.1 250 53.1 249.5 53.1C248.7 53.1 248 53.4 247.6 54C247.2 54.6 246.9 55.5 246.9 56.7C246.9 57.9 247.1 58.8 247.5 59.4C247.9 60 248.4 60.3 249 60.3C249.2 60.3 249.4 60.3 249.5 60.3C249.6 60.3 249.7 60.2 249.8 60.2V57.3H248.6V56H252.1V61.6Z" fill="#1E4485"/>
<path d="M230.7 64.4C230.7 64.8 230.6 65.1 230.3 65.3C230 65.6 229.7 65.7 229.4 65.7C229.1 65.7 228.7 65.6 228.5 65.3C228.2 65 228.1 64.7 228.1 64.4C228.1 64 228.2 63.7 228.5 63.5C228.8 63.2 229.1 63.1 229.4 63.1C229.7 63.1 230.1 63.2 230.3 63.5C230.6 63.7 230.7 64 230.7 64.4Z" fill="#1E4485"/>
<path d="M71.6002 50L69.7002 47.9C69.8002 47.8 69.9002 47.7 70.0002 47.6C70.1002 47.5 70.4002 47.5 70.6002 47.5C70.8002 47.5 71.0002 47.5 71.3002 47.6C71.5002 47.7 71.7002 47.7 71.9002 47.8L72.9002 50H71.6002Z" fill="#1E4485"/>
<path d="M223.2 33.4L210.4 17.6H205.6V41.4H210.4V25.7L223.2 41.4H228V17.6H223.2V33.4Z" fill="#1E4383"/>
</svg>
