<svg width="255" height="78" viewBox="0 0 255 78" fill="none" xmlns="http://www.w3.org/2000/svg">
<g clip-path="url(#clip0_541_21239)">
<path d="M56.8823 0.466187C56.8823 0.466286 56.8875 0.467183 56.8884 0.467183H56.9187C56.9033 0.466187 56.8968 0.466959 56.8823 0.466187Z" fill="url(#paint0_linear_541_21239)"/>
<path d="M56.6094 0.461292C56.6735 0.459342 56.772 0.460315 56.8825 0.466311C56.7688 0.459927 56.6749 0.459391 56.6094 0.461292Z" fill="url(#paint1_linear_541_21239)"/>
<path fill-rule="evenodd" clip-rule="evenodd" d="M113.011 7.25719C106.931 7.33664 101.102 9.55424 101.102 9.55424V47.0282H108.594V32.3754C110.474 32.9965 113.44 33.2648 118.053 32.1966C128.378 29.8055 127.727 20.0236 127.727 20.0236C127.727 20.0236 128.433 12.9045 120.934 8.88321C118.59 7.62654 115.774 7.22109 113.011 7.25719ZM145.673 7.38099C141.784 7.41033 137.819 8.23579 134.966 9.18385V44.9954V44.9964C134.978 45.0014 145.187 49.4178 153.925 45.7333C162.667 42.0467 160.034 33.41 160.034 33.41C160.034 33.41 158.612 28.1955 152.608 26.4048C152.608 26.4048 160.981 23.7717 158.506 14.45C156.871 8.99479 151.353 7.33812 145.671 7.38099L145.673 7.38099ZM216.862 7.39273V46.9967H221.233V32.0718L234.82 46.9967H240.298L226.235 31.9873L240.35 17.2943H234.872L221.233 31.3969V7.39278L216.862 7.39273ZM68.1123 7.41632V14.0609H77.2426V47.0321H84.7419V14.0609H93.8161V7.41635L68.1123 7.41632ZM146.557 11.0102C147.813 11.0399 149.042 11.2378 150.082 11.7117C154.243 13.6077 154.242 16.5564 154.242 16.5564C154.242 16.5564 155.77 24.1405 147.554 24.7199C143.123 25.0323 140.737 24.9602 139.444 24.8289V12.1273C140.719 11.7384 143.683 10.9425 146.557 11.0102ZM113.217 13.2857C121.206 13.3944 119.955 21.3283 119.955 21.3283C119.955 21.3283 119.466 26.273 113.271 26.6534C111.106 26.7863 109.622 26.6514 108.594 26.4225V13.8949C109.832 13.508 111.346 13.2602 113.217 13.2857ZM201.009 17.083C201.009 17.083 195.426 16.8721 190.423 19.4528V46.9967H194.952V22.4022C194.952 22.4022 199.745 19.7694 204.064 21.402C208.382 23.0346 208.066 27.0896 208.118 27.3529V46.9967H212.596V26.1415C212.596 26.1415 213.228 17.1883 201.009 17.083ZM175.993 17.1361C175.993 17.1361 169.515 16.9787 166.25 19.3486L167.513 22.4552C167.513 22.4552 173.676 19.2952 178.889 21.2438C178.889 21.2438 182.365 22.2967 182.207 26.7732V28.4061C182.207 28.4061 167.684 27.7223 165.144 34.9367C162.51 42.4152 169.146 45.8384 169.146 45.8384C169.146 45.8384 170.845 47.0401 176.784 47.0576C179.618 47.066 182.973 46.6027 186.368 45.0485V26.8263C186.368 26.8263 186.947 17.1361 175.993 17.1361ZM143.729 28.3187C147.692 28.292 152.583 28.8638 154.242 31.6189C156.884 36.0064 154.98 39.1496 154.98 39.1496C154.98 39.1496 152.663 43.9428 145.289 43.3635C142.552 43.1484 140.699 42.8677 139.444 42.6001V28.5683C140.472 28.4584 141.956 28.3306 143.729 28.3187ZM182.207 31.5658V42.5205C182.207 42.5205 173.833 45.4174 170.199 41.6255C166.565 37.8336 170.674 34.0417 170.674 34.0417C170.674 34.0417 172.991 31.5131 182.207 31.5658Z" fill="#5E2E86"/>
<path d="M214.622 55.9934C214.337 55.9934 214.051 56.0254 213.765 56.0897C213.479 56.1539 213.252 56.2211 213.083 56.2911C213.019 56.3145 212.955 56.3496 212.89 56.3962C212.826 56.443 212.785 56.5073 212.768 56.5888L212.689 56.9474C212.631 57.2333 212.779 57.3206 213.135 57.2097C213.421 57.1221 213.657 57.061 213.843 57.026C214.036 56.9851 214.256 56.9651 214.501 56.9651C214.746 56.9651 214.856 57.0784 214.833 57.306L214.815 57.3934C214.786 57.5275 214.734 57.651 214.658 57.7619C214.588 57.8668 214.447 58.0154 214.237 58.2079L213.809 58.5842C213.646 58.73 213.511 58.8645 213.406 58.987C213.301 59.1095 213.22 59.235 213.162 59.3633C213.103 59.4858 213.056 59.6343 213.021 59.8094L212.942 60.1768C212.925 60.2527 212.945 60.3289 213.003 60.4048C213.062 60.4747 213.153 60.5089 213.275 60.5089H213.599C213.721 60.5089 213.827 60.4748 213.914 60.4048C214.007 60.3348 214.063 60.2585 214.08 60.1768L214.159 59.8094C214.176 59.7217 214.202 59.6485 214.237 59.5903C214.272 59.5262 214.307 59.4769 214.342 59.4419C214.377 59.401 214.48 59.3018 214.649 59.1442L215.061 58.7679C215.3 58.5463 215.487 58.3596 215.621 58.2079C215.761 58.0562 215.862 57.9158 215.926 57.7874C215.996 57.6591 216.046 57.5286 216.076 57.3944L216.093 57.307C216.192 56.8519 216.102 56.5188 215.822 56.3088C215.548 56.0988 215.148 55.9934 214.622 55.9934ZM111.664 59.6257C111.536 59.6257 111.462 59.6657 111.445 59.7475C111.433 59.7943 111.447 59.8414 111.488 59.888L113.029 62.1457C113.075 62.2216 113.11 62.2768 113.134 62.3118C113.163 62.3467 113.195 62.3739 113.23 62.3914C113.271 62.4085 113.32 62.4169 113.378 62.4169H114.35C114.455 62.4169 114.516 62.3768 114.534 62.2951C114.551 62.2192 114.542 62.1571 114.507 62.1104L113.239 59.888C113.128 59.7129 112.997 59.6257 112.845 59.6257L111.664 59.6257ZM143.227 59.6257C143.128 59.6257 143.053 59.639 143 59.6689C142.948 59.6979 142.862 59.7712 142.746 59.888L140.515 62.1113C140.456 62.1581 140.418 62.2194 140.401 62.2951C140.383 62.3766 140.427 62.4169 140.532 62.4169H141.503C141.59 62.4169 141.658 62.4035 141.704 62.3737C141.757 62.3387 141.847 62.2624 141.976 62.1457L144.488 59.888C144.54 59.8412 144.572 59.7952 144.584 59.7485C144.602 59.6669 144.543 59.6257 144.409 59.6257H143.227ZM179.941 59.6257C179.842 59.6257 179.765 59.639 179.713 59.6689C179.66 59.6979 179.573 59.7712 179.45 59.888L177.254 62.1103C177.201 62.1571 177.166 62.2192 177.149 62.2951C177.131 62.3766 177.175 62.4169 177.28 62.4169H178.216C178.298 62.4169 178.365 62.3998 178.418 62.3648C178.476 62.3298 178.567 62.2566 178.689 62.1457L180.544 60.4126L181.647 62.1457C181.723 62.2624 181.778 62.3387 181.813 62.3737C181.848 62.4027 181.91 62.4169 181.997 62.4169H182.925C183.035 62.4169 183.1 62.3768 183.117 62.295C183.135 62.2192 183.124 62.1579 183.083 62.1113L181.849 59.8879C181.744 59.7128 181.615 59.6256 181.464 59.6256L179.941 59.6257ZM210.483 59.888C210.384 59.888 210.308 59.9031 210.255 59.9322C210.203 59.9613 210.116 60.0335 209.993 60.1503L207.796 62.3737C207.744 62.4205 207.71 62.4817 207.692 62.5574C207.675 62.639 207.718 62.6792 207.823 62.6792H208.759C208.841 62.6792 208.908 62.6621 208.96 62.6271C209.013 62.5922 209.103 62.519 209.232 62.4081L211.088 60.6759L212.19 62.4081C212.266 62.5248 212.321 62.601 212.356 62.636C212.391 62.6651 212.452 62.6792 212.54 62.6792H213.467C213.578 62.6792 213.642 62.6391 213.66 62.5574C213.677 62.4815 213.666 62.4202 213.625 62.3737L212.391 60.1503C212.286 59.9752 212.158 59.888 212.006 59.888L210.483 59.888ZM186.589 60.0019C186.484 60.0019 186.391 60.0371 186.309 60.1071C186.228 60.1772 186.175 60.2615 186.152 60.3606L185.845 61.7871C185.828 61.8864 185.846 61.9706 185.899 62.0406C185.957 62.1106 186.035 62.1457 186.134 62.1457H187.044C187.143 62.1457 187.235 62.1137 187.316 62.0494C187.404 61.9793 187.456 61.892 187.473 61.7871L187.78 60.3606C187.803 60.2497 187.788 60.1624 187.736 60.0982C187.689 60.0342 187.611 60.0019 187.5 60.0019H186.589ZM204.084 60.0019C203.979 60.0019 203.886 60.0371 203.804 60.1071C203.723 60.1772 203.67 60.2615 203.647 60.3606L203.341 61.7871C203.323 61.8864 203.341 61.9706 203.394 62.0406C203.452 62.1106 203.53 62.1457 203.629 62.1457H204.54C204.639 62.1457 204.73 62.1137 204.811 62.0494C204.899 61.9793 204.951 61.892 204.969 61.7871L205.275 60.3606C205.298 60.2497 205.283 60.1624 205.231 60.0982C205.184 60.0342 205.106 60.0019 204.995 60.0019H204.084ZM129.02 60.1071C128.921 60.1071 128.831 60.1422 128.749 60.2122C128.673 60.2763 128.627 60.3606 128.61 60.4657L125.896 73.2252C125.873 73.3245 125.888 73.4087 125.94 73.4787C125.999 73.5487 126.072 73.5838 126.159 73.5838H127.034C127.127 73.5838 127.218 73.5487 127.305 73.4787C127.393 73.4029 127.449 73.3186 127.472 73.2252L129.117 65.4803C129.502 65.3169 129.945 65.1945 130.447 65.1128C130.949 65.0254 131.363 64.9812 131.69 64.9812C132.314 64.9812 132.752 65.1568 133.003 65.5068C133.259 65.8569 133.297 66.4629 133.116 67.3264L131.865 73.2252C131.841 73.3245 131.856 73.4087 131.909 73.4787C131.967 73.5487 132.046 73.5838 132.145 73.5838H133.003C133.09 73.5838 133.177 73.5487 133.265 73.4787C133.358 73.4086 133.417 73.3243 133.441 73.2252L134.691 67.3264C134.866 66.4862 134.881 65.7859 134.736 65.2258C134.59 64.6599 134.301 64.2485 133.869 63.9918C133.437 63.7293 132.898 63.5988 132.25 63.5988C131.824 63.5988 131.354 63.6449 130.841 63.7383C130.333 63.8317 129.852 63.9722 129.397 64.1588L130.185 60.4657C130.202 60.3606 130.187 60.2763 130.141 60.2122C130.094 60.1422 130.019 60.1071 129.914 60.1071H129.02ZM194.599 60.1071C194.5 60.1071 194.41 60.1422 194.328 60.2122C194.252 60.2763 194.205 60.3606 194.188 60.4657L191.475 73.2252C191.452 73.3245 191.466 73.4087 191.518 73.4787C191.577 73.5487 191.65 73.5838 191.737 73.5838H192.613C192.706 73.5838 192.796 73.5487 192.884 73.4787C192.972 73.4029 193.027 73.3186 193.05 73.2252L194.696 65.4803C195.081 65.3169 195.524 65.1945 196.026 65.1128C196.528 65.0254 196.942 64.9812 197.269 64.9812C197.893 64.9812 198.331 65.1568 198.581 65.5068C198.838 65.8569 198.875 66.4629 198.694 67.3264L197.444 73.2252C197.42 73.3245 197.434 73.4087 197.487 73.4787C197.545 73.5487 197.625 73.5838 197.724 73.5838H198.581C198.669 73.5838 198.756 73.5487 198.844 73.4787C198.937 73.4086 198.995 73.3243 199.019 73.2252L200.27 67.3264C200.445 66.4862 200.459 65.7859 200.314 65.2258C200.168 64.6599 199.879 64.2485 199.447 63.9918C199.015 63.7293 198.476 63.5988 197.829 63.5988C197.403 63.5988 196.932 63.6449 196.419 63.7383C195.911 63.8317 195.431 63.9722 194.976 64.1588L195.763 60.4657C195.78 60.3606 195.766 60.2763 195.719 60.2122C195.673 60.1422 195.597 60.1071 195.492 60.1071H194.599ZM230.729 60.1071C230.624 60.1071 230.537 60.1422 230.467 60.2122C230.397 60.2824 230.351 60.3605 230.327 60.448L227.667 72.9884C227.638 73.1227 227.638 73.219 227.667 73.2773C227.702 73.33 227.798 73.374 227.956 73.4089C228.959 73.6073 230.033 73.7066 231.176 73.7066C232.489 73.7066 233.551 73.3153 234.362 72.5335C235.178 71.7517 235.735 70.6671 236.033 69.2786L236.304 67.9915C236.456 67.2739 236.509 66.6438 236.462 66.1012C236.421 65.5586 236.275 65.1041 236.024 64.7365C235.779 64.369 235.432 64.0881 234.983 63.8955C234.539 63.6972 233.988 63.5988 233.329 63.5988C232.967 63.5988 232.6 63.6122 232.227 63.642C231.859 63.6713 231.514 63.7185 231.193 63.7825L231.902 60.448C231.926 60.3546 231.911 60.2763 231.858 60.2122C231.806 60.1422 231.733 60.1071 231.64 60.1071L230.729 60.1071ZM101.469 60.2643C101.387 60.2643 101.306 60.2934 101.224 60.3517C101.148 60.4041 101.101 60.4774 101.084 60.5708C101.072 60.6174 101.069 60.6526 101.075 60.6759L101.915 72.3498C101.979 73.2541 102.493 73.7066 103.455 73.7066C103.864 73.7066 104.255 73.6073 104.628 73.4089C105.008 73.2106 105.323 72.8574 105.573 72.3498L111.349 60.6759C111.366 60.6526 111.381 60.6174 111.393 60.5708C111.434 60.3666 111.352 60.2643 111.148 60.2643H110.089C109.943 60.2643 109.824 60.3546 109.73 60.5354L104.164 71.9558C104.041 72.2067 103.902 72.3321 103.744 72.3321C103.575 72.3321 103.482 72.2067 103.464 71.9558L102.781 60.5354C102.775 60.4596 102.743 60.3953 102.685 60.3429C102.632 60.2904 102.574 60.2643 102.51 60.2643H101.469ZM172.662 61.4717L171.69 61.6113C171.474 61.6521 171.346 61.7725 171.305 61.9708L170.928 63.7295H169.187C168.96 63.7295 168.822 63.8348 168.776 64.0449L168.671 64.5351C168.63 64.7335 168.72 64.8409 168.942 64.8584L170.648 65.0509L169.318 71.3084C169.114 72.2477 169.164 72.8838 169.467 73.2164C169.771 73.5431 170.36 73.7057 171.235 73.7057C171.614 73.7057 172.011 73.6765 172.425 73.6182C172.646 73.589 172.775 73.4877 172.81 73.3127L172.942 72.6907C172.977 72.5216 172.868 72.4373 172.617 72.4373H171.611C171.238 72.4373 170.999 72.37 170.894 72.2359C170.789 72.0958 170.789 71.7868 170.894 71.3084L172.224 65.0509H174.158C174.245 65.0509 174.333 65.0158 174.42 64.9458C174.514 64.8757 174.57 64.7915 174.587 64.6923L174.718 64.0881C174.741 63.9889 174.724 63.9046 174.666 63.8346C174.613 63.7647 174.537 63.7295 174.438 63.7295H172.504L172.915 61.7694C172.938 61.6819 172.93 61.6117 172.889 61.5592C172.854 61.5009 172.795 61.4717 172.714 61.4717H172.662ZM123.783 63.587C122.954 63.587 122.213 63.7616 121.56 64.1117C120.912 64.4617 120.378 64.9634 119.958 65.6169C119.538 66.2644 119.232 67.041 119.039 67.9453L118.742 69.3454C118.596 70.0338 118.547 70.6408 118.593 71.1659C118.64 71.691 118.783 72.1425 119.022 72.5218C119.267 72.901 119.611 73.1929 120.054 73.3972C120.498 73.5955 121.023 73.6948 121.629 73.6948C122.119 73.6948 122.589 73.6367 123.038 73.52C123.487 73.4033 123.838 73.2839 124.088 73.1614C124.199 73.1088 124.279 73.0587 124.325 73.012C124.372 72.9653 124.407 72.89 124.43 72.7851L124.561 72.1376C124.614 71.8867 124.494 71.8104 124.202 71.9097C123.368 72.1839 122.61 72.3213 121.927 72.3213C121.198 72.3213 120.693 72.0725 120.413 71.5766C120.139 71.0749 120.107 70.3314 120.317 69.3454L120.614 67.9453C121.034 65.9617 121.992 64.9694 123.485 64.9694C124.168 64.9694 124.867 65.1068 125.585 65.3811C125.841 65.4744 125.997 65.3961 126.049 65.1453L126.189 64.5057C126.206 64.4006 126.203 64.3284 126.18 64.2875C126.163 64.2408 126.107 64.1877 126.014 64.1294C125.827 64.0069 125.529 63.8875 125.121 63.7708C124.718 63.6482 124.273 63.587 123.783 63.587ZM210.448 63.5978C209.188 63.5978 208.129 63.9741 207.272 64.7267C206.414 65.4735 205.848 66.4949 205.574 67.7901L205.224 69.4092C205.002 70.4652 205.008 71.3141 205.242 71.9558C205.481 72.5918 205.877 73.0433 206.432 73.3117C206.986 73.5742 207.636 73.7057 208.383 73.7057C209.567 73.7057 210.737 73.4317 211.892 72.8833C212.073 72.79 212.178 72.6816 212.208 72.5591L212.365 71.8242C212.388 71.7134 212.368 71.635 212.304 71.5884C212.24 71.5365 212.137 71.5393 211.997 71.5982C211.758 71.6857 211.443 71.7941 211.052 71.9224C210.661 72.0451 210.265 72.1443 209.862 72.2201C209.466 72.296 209.068 72.3331 208.672 72.3331C207.82 72.3331 207.24 72.1063 206.931 71.6513C206.627 71.1962 206.583 70.4487 206.799 69.4102L206.86 69.1567H212.864C213.091 69.1567 213.231 69.0253 213.283 68.7628L213.494 67.7911C213.669 66.9509 213.675 66.2125 213.511 65.5766C213.354 64.9406 213.016 64.454 212.496 64.1156C211.977 63.7714 211.294 63.5988 210.448 63.5988V63.5978ZM241.994 63.5978C241.41 63.5978 240.835 63.6651 240.269 63.7993C239.703 63.9276 239.269 64.053 238.966 64.1755C238.785 64.2455 238.677 64.3529 238.642 64.4988L238.493 65.1993C238.475 65.2985 238.498 65.3718 238.563 65.4184C238.633 65.4655 238.735 65.4683 238.869 65.4282C239.406 65.2765 239.876 65.1661 240.278 65.0961C240.687 65.0203 241.162 64.9822 241.705 64.9822C242.411 64.9822 242.874 65.1276 243.096 65.4194C243.323 65.7052 243.356 66.222 243.192 66.9687L243.044 67.686H241.714C240.669 67.686 239.808 67.7913 239.132 68.0013C238.455 68.2055 237.93 68.5206 237.557 68.9465C237.183 69.3724 236.923 69.9212 236.778 70.5921L236.752 70.7493C236.53 71.782 236.673 72.5345 237.18 73.0071C237.694 73.4738 238.648 73.7076 240.042 73.7076C240.643 73.7076 241.188 73.6724 241.678 73.6025C242.168 73.5325 242.662 73.4302 243.158 73.2959C243.344 73.255 243.461 73.1237 243.508 72.902L244.768 66.9678C245.246 64.7216 244.321 63.5988 241.994 63.5988V63.5978ZM150.8 63.5989C149.785 63.5989 148.514 63.7855 146.985 64.1589C146.752 64.2231 146.611 64.3655 146.565 64.5872L144.736 73.2253C144.713 73.3245 144.727 73.4088 144.78 73.4787C144.838 73.5487 144.911 73.5839 144.999 73.5839H145.874C145.967 73.5839 146.058 73.5487 146.145 73.4787C146.233 73.4029 146.288 73.3187 146.311 73.2253L148 65.2701C148.852 65.0542 149.646 64.9468 150.381 64.9468C150.871 64.9468 151.253 65.0221 151.527 65.1738C151.801 65.3255 151.97 65.5763 152.034 65.9264C152.104 66.2764 152.075 66.749 151.947 67.3441L150.704 73.2253C150.681 73.3245 150.696 73.4088 150.748 73.4787C150.806 73.5487 150.885 73.5839 150.984 73.5839H151.842C151.929 73.5839 152.017 73.5487 152.105 73.4787C152.198 73.4086 152.257 73.3244 152.28 73.2253L153.523 67.3441C153.657 66.714 153.715 66.1742 153.698 65.725C153.68 65.2699 153.575 64.8856 153.382 64.5705C153.19 64.2555 152.878 64.0157 152.446 63.8523C152.02 63.6831 151.471 63.5989 150.8 63.5989ZM159.634 63.5989C158.741 63.5989 157.963 63.7593 157.297 64.0803C156.638 64.3953 156.092 64.876 155.661 65.5235C155.235 66.1711 154.914 66.9939 154.698 67.9916L154.418 69.3042C153.793 72.2388 154.815 73.7067 157.481 73.7067C157.755 73.7067 158.106 73.6806 158.531 73.6281C158.957 73.5754 159.292 73.5192 159.537 73.461L159.511 73.5839C159.388 74.1848 159.22 74.6453 159.004 74.9662C158.788 75.2929 158.505 75.5176 158.155 75.6402C157.811 75.7628 157.346 75.8239 156.763 75.8239C156.197 75.8239 155.754 75.778 155.433 75.6844C155.112 75.5911 154.671 75.4275 154.111 75.1942C154 75.1417 153.902 75.1417 153.815 75.1942C153.727 75.2466 153.674 75.3259 153.656 75.4309L153.526 76.0253C153.491 76.1945 153.546 76.3319 153.692 76.437C153.925 76.5946 154.292 76.746 154.794 76.8919C155.302 77.0377 155.868 77.111 156.492 77.111C157.769 77.111 158.788 76.8421 159.546 76.3053C160.305 75.7744 160.819 74.8674 161.087 73.5839L163.038 64.4212C163.067 64.287 163.061 64.1937 163.02 64.1412C162.985 64.0828 162.895 64.0396 162.749 64.0105C161.612 63.7363 160.573 63.5989 159.634 63.5989ZM179.827 63.5989C178.543 63.5989 177.476 63.9922 176.624 64.7798C175.772 65.5616 175.203 66.6262 174.917 67.9739L174.628 69.3395C174.343 70.6814 174.459 71.7459 174.978 72.5336C175.497 73.3154 176.399 73.7067 177.683 73.7067C178.972 73.7067 180.043 73.3154 180.895 72.5336C181.747 71.7459 182.315 70.6814 182.601 69.3395L182.89 67.9739C183.176 66.6262 183.059 65.5616 182.539 64.7798C182.02 63.9922 181.116 63.5989 179.827 63.5989ZM251.593 63.5989C250.578 63.5989 249.306 63.7855 247.777 64.1589C247.544 64.2231 247.405 64.3655 247.358 64.5872L245.529 73.2253C245.505 73.3245 245.52 73.4088 245.573 73.4787C245.631 73.5487 245.703 73.5839 245.791 73.5839H246.666C246.76 73.5839 246.85 73.5487 246.937 73.4787C247.025 73.4029 247.08 73.3187 247.103 73.2253L248.793 65.2701C249.645 65.0542 250.438 64.9468 251.173 64.9468C251.663 64.9468 252.045 65.0221 252.319 65.1738C252.594 65.3255 252.763 65.5763 252.827 65.9264C252.897 66.2764 252.868 66.749 252.74 67.3441L251.497 73.2253C251.474 73.3245 251.489 73.4088 251.541 73.4787C251.6 73.5487 251.678 73.5839 251.777 73.5839H252.635C252.722 73.5839 252.81 73.5487 252.897 73.4787C252.991 73.4086 253.049 73.3244 253.072 73.2253L254.315 67.3441C254.449 66.714 254.507 66.1742 254.49 65.725C254.472 65.2699 254.368 64.8856 254.175 64.5705C253.983 64.2555 253.671 64.0157 253.239 63.8523C252.813 63.6831 252.264 63.5989 251.593 63.5989ZM112.67 63.7295C112.571 63.7295 112.477 63.7647 112.39 63.8347C112.308 63.9048 112.258 63.99 112.241 64.0891L110.298 73.2253C110.275 73.3245 110.292 73.4087 110.35 73.4787C110.414 73.5487 110.491 73.5839 110.578 73.5839H111.436C111.535 73.5839 111.625 73.5517 111.707 73.4876C111.795 73.4176 111.85 73.3303 111.873 73.2253L113.817 64.0891C113.84 63.9783 113.825 63.8899 113.772 63.8258C113.72 63.7617 113.639 63.7295 113.528 63.7295H112.67ZM137.539 63.7295C137.434 63.7295 137.34 63.7647 137.259 63.8347C137.177 63.9048 137.128 63.99 137.11 64.0891L135.859 69.9605V69.9614C135.684 70.7841 135.643 71.4694 135.737 72.0178C135.83 72.5604 136.104 72.9778 136.559 73.2695C137.02 73.5612 137.691 73.7067 138.572 73.7067C139.611 73.7067 140.885 73.523 142.396 73.1555C142.629 73.0914 142.77 72.9479 142.817 72.7262L144.654 64.0891C144.671 63.9899 144.654 63.9047 144.602 63.8347C144.555 63.7647 144.482 63.7305 144.383 63.7305H143.507C143.402 63.7305 143.309 63.7679 143.227 63.8435C143.146 63.9135 143.096 63.9956 143.079 64.0891L141.381 72.0433C141.025 72.131 140.608 72.2072 140.129 72.2713C139.651 72.3353 139.275 72.3676 139.001 72.3676C138.265 72.3676 137.773 72.1869 137.522 71.8252C137.277 71.4635 137.248 70.8414 137.435 69.9605L138.685 64.0891C138.703 63.9899 138.683 63.9047 138.624 63.8347C138.572 63.7647 138.496 63.7295 138.396 63.7295L137.539 63.7295ZM185.81 63.7295C185.711 63.7295 185.618 63.7647 185.53 63.8347C185.448 63.9048 185.399 63.99 185.382 64.0891L183.439 73.2253C183.416 73.3245 183.433 73.4087 183.491 73.4787C183.556 73.5487 183.632 73.5839 183.719 73.5839H184.577C184.676 73.5839 184.767 73.5518 184.848 73.4876C184.936 73.4176 184.991 73.3303 185.014 73.2253L186.957 64.0891C186.98 63.9783 186.966 63.89 186.913 63.8258C186.861 63.7617 186.779 63.7295 186.668 63.7295H185.81ZM203.306 63.7295C203.207 63.7295 203.114 63.7647 203.026 63.8347C202.945 63.9048 202.894 63.99 202.877 64.0891L200.935 73.2253C200.911 73.3245 200.928 73.4087 200.987 73.4787C201.051 73.5487 201.127 73.5839 201.215 73.5839H202.072C202.171 73.5839 202.262 73.5518 202.343 73.4876C202.431 73.4176 202.486 73.3303 202.509 73.2253L204.453 64.0891C204.476 63.9783 204.461 63.89 204.409 63.8258C204.356 63.7617 204.275 63.7295 204.164 63.7295H203.306ZM216.22 63.7295C216.115 63.7295 216.022 63.7647 215.94 63.8347C215.858 63.9047 215.808 63.99 215.791 64.0891L214.539 69.9605V69.9614C214.364 70.7841 214.324 71.4694 214.417 72.0178C214.51 72.5604 214.784 72.9778 215.239 73.2695C215.7 73.5612 216.372 73.7067 217.253 73.7067C218.291 73.7067 219.565 73.5231 221.076 73.1555C221.31 73.0913 221.45 72.9479 221.497 72.7262L223.334 64.0891C223.352 63.9899 223.335 63.9046 223.282 63.8347C223.235 63.7647 223.162 63.7305 223.063 63.7305H222.188C222.083 63.7305 221.989 63.7677 221.908 63.8435C221.826 63.9135 221.777 63.9957 221.759 64.0891L220.062 72.0433C219.706 72.1309 219.288 72.2071 218.81 72.2713C218.331 72.3354 217.955 72.3676 217.681 72.3676C216.946 72.3676 216.453 72.1869 216.202 71.8252C215.957 71.4635 215.928 70.8414 216.115 69.9605L217.367 64.0891C217.384 63.9899 217.363 63.9046 217.305 63.8347C217.252 63.7647 217.177 63.7295 217.078 63.7295L216.22 63.7295ZM159.354 64.9291C159.984 64.9291 160.637 64.9934 161.314 65.1217L159.809 72.1838C159.529 72.2422 159.19 72.2915 158.794 72.3322C158.397 72.3671 158.056 72.3852 157.77 72.3852C157.222 72.3852 156.789 72.286 156.474 72.0875C156.159 71.8892 155.961 71.5651 155.88 71.1159C155.798 70.6666 155.836 70.0626 155.994 69.3042L156.274 67.9916C156.39 67.4373 156.533 66.9677 156.702 66.5827C156.877 66.1976 157.082 65.8826 157.315 65.6375C157.554 65.3925 157.842 65.2149 158.181 65.104C158.519 64.9873 158.91 64.9291 159.354 64.9291ZM179.538 64.9812C180.086 64.9812 180.512 65.1006 180.815 65.3398C181.124 65.579 181.317 65.9232 181.393 66.3724C181.475 66.8158 181.448 67.3496 181.314 67.9739L181.025 69.3395C180.821 70.2963 180.463 71.0348 179.95 71.554C179.442 72.0733 178.783 72.3322 177.972 72.3322C176.367 72.3322 175.777 71.3348 176.203 69.3395L176.492 67.9739C176.696 67.0229 177.053 66.2884 177.56 65.7692C178.068 65.2441 178.727 64.9812 179.538 64.9812ZM210.151 64.9812C210.682 64.9812 211.099 65.0746 211.402 65.2612C211.705 65.4479 211.898 65.7509 211.98 66.171C212.067 66.5911 212.041 67.1309 211.901 67.7901L211.866 67.9572H207.114L207.149 67.7901C207.545 65.9173 208.547 64.9812 210.151 64.9812ZM233.031 64.9812C233.877 64.9812 234.426 65.229 234.677 65.725C234.928 66.2209 234.945 66.9764 234.729 67.9916L234.458 69.2786C234.242 70.3054 233.904 71.072 233.443 71.5796C232.982 72.0813 232.326 72.3322 231.474 72.3322C230.955 72.3322 230.266 72.2939 229.408 72.2182L230.913 65.104C231.386 65.0225 232.092 64.9812 233.031 64.9812ZM241.469 68.8316H242.799L242.063 72.3155C241.947 72.3445 241.795 72.3709 241.608 72.3941C241.428 72.4175 241.224 72.4385 240.996 72.456C240.775 72.4674 240.544 72.4727 240.305 72.4727C239.698 72.4727 239.234 72.4145 238.913 72.2978C238.598 72.181 238.403 71.9975 238.327 71.7466C238.251 71.4899 238.257 71.1508 238.345 70.7307L238.379 70.5735C238.449 70.241 238.548 69.97 238.677 69.76C238.811 69.5442 238.991 69.3656 239.219 69.2256C239.452 69.0854 239.744 68.9861 240.094 68.9279C240.444 68.8638 240.903 68.8316 241.469 68.8316ZM239.254 74.3453C239.167 74.3453 239.077 74.3834 238.983 74.4593C238.896 74.5351 238.843 74.6165 238.826 74.7039L238.511 76.157C238.493 76.2562 238.513 76.3374 238.572 76.4016C238.636 76.4657 238.712 76.4979 238.799 76.4979H239.5C239.599 76.4979 239.689 76.4659 239.771 76.4016C239.859 76.3374 239.911 76.2562 239.928 76.157L240.244 74.7039C240.261 74.6164 240.24 74.5351 240.182 74.4593C240.129 74.3834 240.054 74.3453 239.955 74.3453H239.254Z" fill="#5E2E86"/>
<path d="M56.6094 0.461257C56.537 0.463692 56.4974 0.467154 56.4974 0.467154H5.34131L52.426 20.7142L60.1316 7.36322C60.9619 5.61964 60.9848 3.93188 60.5069 3.00982C59.225 0.536322 57.1164 0.44535 56.6094 0.461257Z" fill="url(#paint2_linear_541_21239)"/>
<path d="M56.6092 0.461272C56.5368 0.463707 56.4972 0.467168 56.4972 0.467168H56.9177C56.787 0.458396 56.6817 0.45903 56.6092 0.461272ZM60.264 7.04785L19.2954 38.0816L27.3567 51.9651C27.3567 51.9651 28.2835 53.8171 30.8485 53.8171C33.4134 53.8171 34.5534 51.6802 34.5534 51.6802L60.1314 7.36323C60.1818 7.25745 60.2196 7.15307 60.264 7.04785Z" fill="url(#paint3_linear_541_21239)"/>
<path d="M21.5914 7.4557L5.34106 0.467285C5.34106 0.467285 1.99303 0.467771 0.995566 3.30274C0.127986 5.76849 1.70786 7.79171 1.70786 7.79171L27.3448 51.9446L21.5914 7.4557Z" fill="url(#paint4_linear_541_21239)"/>
</g>
<defs>
<linearGradient id="paint0_linear_541_21239" x1="4.30509" y1="10.794" x2="60.963" y2="10.794" gradientUnits="userSpaceOnUse">
<stop stop-color="#FBB413" stop-opacity="0.784314"/>
<stop offset="1" stop-color="#DF5F27"/>
</linearGradient>
<linearGradient id="paint1_linear_541_21239" x1="5.31708" y1="10.5955" x2="60.8847" y2="10.5955" gradientUnits="userSpaceOnUse">
<stop stop-color="#FBB413" stop-opacity="0.784314"/>
<stop offset="1" stop-color="#DF5F27"/>
</linearGradient>
<linearGradient id="paint2_linear_541_21239" x1="5.34131" y1="0.46715" x2="52.4906" y2="9.91022" gradientUnits="userSpaceOnUse">
<stop stop-color="#FBB413"/>
<stop offset="1" stop-color="#DE5D27"/>
</linearGradient>
<linearGradient id="paint3_linear_541_21239" x1="59.91" y1="24.9708" x2="25.972" y2="40.7836" gradientUnits="userSpaceOnUse">
<stop stop-color="#FBB413"/>
<stop offset="1" stop-color="#DE5D27"/>
</linearGradient>
<linearGradient id="paint4_linear_541_21239" x1="4.22151" y1="44.5741" x2="13.4245" y2="4.61014" gradientUnits="userSpaceOnUse">
<stop stop-color="#FBB413"/>
<stop offset="1" stop-color="#DE5D27"/>
</linearGradient>
<clipPath id="clip0_541_21239">
<rect width="255" height="77.5665" fill="white"/>
</clipPath>
</defs>
</svg>
