<svg width="252" height="57" viewBox="0 0 252 57" fill="none" xmlns="http://www.w3.org/2000/svg">
<g clip-path="url(#clip0_541_21235)">
<path d="M18.8413 0.00396393C18.3452 0.0293495 17.9186 0.281404 17.9186 0.799015V17.6506C17.9186 17.6506 17.9789 20.3732 20.3934 23.0959C22.8079 25.8186 32.5714 37.0691 32.5714 37.0691V15.0228L20.1817 0.569608C19.9028 0.180012 19.3374 -0.0213896 18.8413 0.00396393ZM48.0622 0.0322698C47.6251 0.0457275 47.1178 0.281226 46.6954 0.74933L34.4071 15.0304V37.069L47.2095 22.2223C47.2095 22.2223 49.0705 19.808 49.0705 16.9826V1.05723C49.0705 0.364219 48.6243 0.0149554 48.0622 0.0322698ZM1.1405 20.5309C0.0112357 20.5309 -0.466416 21.95 0.619404 23.0503C0.619404 23.0503 21.1632 46.9819 25.2893 51.6727C29.4155 56.3634 32.5714 56.2232 32.5714 56.2232V40.1196C32.5714 40.1196 24.7681 30.8246 20.4248 25.7864C16.0815 20.7481 9.65364 20.5309 9.65364 20.5309H1.1405ZM57.3248 20.5309C57.3248 20.5309 50.897 20.7481 46.5537 25.7864C42.2103 30.8246 34.4071 40.1196 34.4071 40.1196V56.2232C34.4071 56.2232 37.5625 56.3634 41.6886 51.6727C45.8148 46.9819 66.3591 23.0503 66.3591 23.0503C67.4449 21.95 66.9672 20.5309 65.838 20.5309H57.3248ZM240.83 30.663C240.83 30.663 237.783 30.6631 235.711 33.1009L229.148 40.5668V48.9462C229.148 48.9462 230.317 49.4034 231.445 48.3674L245.692 31.9285C246.239 31.3239 246.055 30.663 245.293 30.663H240.83Z" fill="#E00500"/>
<path d="M75.3608 20.531L87.4517 56.2232H96.2013L108.186 20.531H100.497L91.8002 47.6873L83.05 20.531H75.3608ZM111.315 20.531V56.2232H118.156V44.3466H125.527C125.527 44.3466 129.984 44.3463 133.692 40.581C135.371 38.8754 136.61 36.6394 136.61 32.7328C136.61 22.9221 127.065 20.531 124.944 20.531H118.156H112.8H111.315ZM139.898 20.531V56.2232H144.406H147.057H155.436C155.436 56.2232 160.251 56.2234 163.153 53.1783C164.658 51.5994 166.148 49.3351 166.148 45.7782C166.042 44.8767 166.201 39.6269 161.481 37.7178C161.481 37.7178 166.837 33.7984 164.186 27.1649C161.534 20.5314 154.375 20.531 154.375 20.531H147.057H144.088H139.898ZM222.791 20.531V56.2232H229.148V20.531H222.791ZM248.058 20.5897C247.142 20.5898 246.264 20.9538 245.616 21.6017C244.968 22.2496 244.605 23.1282 244.605 24.0444C244.605 24.9606 244.968 25.8392 245.616 26.4871C246.264 27.1349 247.142 27.499 248.058 27.4991C248.512 27.4991 248.961 27.4097 249.38 27.2361C249.799 27.0625 250.18 26.808 250.501 26.4872C250.821 26.1665 251.076 25.7856 251.249 25.3665C251.423 24.9473 251.512 24.4981 251.512 24.0444C251.512 23.5907 251.423 23.1415 251.249 22.7223C251.076 22.3032 250.821 21.9223 250.501 21.6015C250.18 21.2807 249.799 21.0262 249.38 20.8526C248.961 20.679 248.512 20.5897 248.058 20.5897ZM248.037 21.3701C248.386 21.3701 248.731 21.4387 249.053 21.5721C249.375 21.7054 249.667 21.9009 249.913 22.1473C250.16 22.3937 250.355 22.6862 250.489 23.0081C250.622 23.3301 250.691 23.6751 250.691 24.0236C250.691 24.3721 250.622 24.7171 250.489 25.0391C250.355 25.361 250.16 25.6536 249.914 25.9C249.667 26.1464 249.375 26.3418 249.053 26.4752C248.731 26.6085 248.386 26.6772 248.037 26.6772C247.334 26.677 246.659 26.3974 246.162 25.8998C245.664 25.4022 245.385 24.7273 245.385 24.0236C245.385 23.3199 245.664 22.6451 246.162 22.1475C246.659 21.6498 247.334 21.3702 248.037 21.3701ZM246.687 22.3059V25.874H247.519V24.5412H247.76L248.638 25.874H249.564L248.626 24.5412C248.626 24.5412 249.465 24.5415 249.451 23.4767C249.436 22.3062 248.309 22.3059 248.309 22.3059H246.687ZM247.519 23.0817H248.161C248.161 23.0817 248.549 23.0886 248.556 23.4413C248.563 23.7938 248.204 23.7942 248.204 23.7942H247.519V23.0817ZM118.156 27.1648H125.103C125.103 27.1648 129.717 27.3745 129.717 32.6269C129.717 37.8769 124.944 37.8768 124.944 37.8768H118.156V27.1648ZM147.057 27.1648H154.057C154.057 27.1648 157.663 27.3768 157.663 31.248C157.663 35.1191 153.951 35.1189 153.951 35.1189H147.057V27.1648ZM211.175 29.8873C206.782 29.8873 204.442 31.9379 203.225 33.7729V30.7704H196.981V56.2232H203.225V42.048C203.225 42.048 203.334 35.9133 208.997 35.877C214.66 35.8407 214.079 42.4111 214.079 42.4111V56.2232H220.395V39.7976C220.395 39.7976 220.504 35.057 217.097 32.1747C215.756 31.0404 213.779 29.8873 211.175 29.8873ZM179.756 29.9597C176.516 29.9597 173.409 31.3825 171.118 33.915C168.827 36.4476 167.54 39.8824 167.54 43.4639C167.54 47.0454 168.827 50.4802 171.118 53.0128C173.409 55.5453 176.516 56.9681 179.756 56.9681C182.835 56.9589 185.798 55.6642 188.05 53.3433V56.2232H194.585V30.7704H188.05V33.5845C185.798 31.2636 182.835 29.969 179.756 29.9597ZM181.008 35.9747C181.992 35.9747 182.965 36.167 183.874 36.5407C184.783 36.9143 185.608 37.462 186.304 38.1524C186.999 38.8428 187.551 39.6624 187.927 40.5645C188.304 41.4665 188.497 42.4334 188.497 43.4097C188.497 45.3815 187.708 47.2725 186.304 48.6667C184.899 50.061 182.994 50.8442 181.008 50.8442C179.022 50.8441 177.117 50.0608 175.713 48.6666C174.308 47.2723 173.519 45.3814 173.519 43.4097C173.519 41.4379 174.308 39.5469 175.713 38.1526C177.117 36.7582 179.022 35.9748 181.008 35.9747ZM147.057 41.0585H155.807C155.807 41.0585 159.095 41.0054 159.095 45.3538C159.095 49.7022 155.223 49.7023 155.223 49.7023H147.057V41.0585ZM236.115 44.0539C235.962 44.048 235.795 44.1015 235.619 44.2539L233.517 46.5697C233.517 46.5697 232.299 48.2115 234.37 50.7445L238.849 56.2232H246.102L236.899 44.6195C236.899 44.6195 236.574 44.071 236.115 44.0539Z" fill="#00B74F"/>
</g>
<defs>
<clipPath id="clip0_541_21235">
<rect width="251.512" height="57" fill="white"/>
</clipPath>
</defs>
</svg>
