<svg width="159" height="48" viewBox="0 0 159 48" fill="none" xmlns="http://www.w3.org/2000/svg">
<path d="M18.2314 3.9834C19.4534 2.92225 21.2258 2.85584 22.5166 3.78418L22.7686 3.9834L22.7881 4L22.8076 4.01758C26.0662 7.01115 30.3266 8.67279 34.752 8.67285C36.6533 8.67285 38.2011 10.2207 38.2012 12.1221V21.6191L38.1982 22.1094C38.0174 32.3826 31.3718 41.443 21.5869 44.6934L21.5752 44.6973L21.5625 44.7012C20.871 44.9204 20.129 44.9204 19.4375 44.7012L19.4248 44.6973L19.4131 44.6934C9.47283 41.3914 2.77313 32.0934 2.79883 21.6191V12.1221C2.79888 10.2207 4.34668 8.67285 6.24805 8.67285L6.66211 8.66797C10.9385 8.56769 15.0356 6.91764 18.1924 4.01758L18.2119 4L18.2314 3.9834Z" fill="#5376E5" stroke="#DDDDDD" stroke-width="3.7315"/>
<path d="M24.459 22.4154C23.588 22.4154 22.8754 21.7028 22.8754 20.8318V18.4565C22.8754 17.1421 21.8144 16.0811 20.5001 16.0811C19.1857 16.0811 18.1247 17.1421 18.1247 18.4565V20.8318C18.1247 21.7028 17.4121 22.4154 16.5411 22.4154C15.6701 22.4154 14.9575 21.7028 14.9575 20.8318V18.4565C14.9575 15.3922 17.4358 12.9139 20.5001 12.9139C23.5643 12.9139 26.0426 15.3922 26.0426 18.4565V20.8318C26.0426 21.7028 25.33 22.4154 24.459 22.4154Z" fill="#E7EFFF"/>
<path d="M26.0422 20.0398H14.9572C13.6453 20.0398 12.5818 21.1033 12.5818 22.4152V31.9167C12.5818 33.2285 13.6453 34.292 14.9572 34.292H26.0422C27.3541 34.292 28.4176 33.2285 28.4176 31.9167V22.4152C28.4176 21.1033 27.3541 20.0398 26.0422 20.0398Z" fill="#A5BCED"/>
<path d="M20.4996 30.3331C19.6286 30.3331 18.916 29.6205 18.916 28.7495V25.5824C18.916 24.7114 19.6286 23.9988 20.4996 23.9988C21.3706 23.9988 22.0832 24.7114 22.0832 25.5824V28.7495C22.0832 29.6205 21.3706 30.3331 20.4996 30.3331Z" fill="#E7EFFF"/>
<path d="M56.7644 6.2992V8.33572H53.9995V16.7345H51.4576V8.33572H48.6927V6.2992H56.7644ZM63.3619 16.7345L61.1916 12.7952H60.5821V16.7345H58.0402V6.2992H62.3065C63.129 6.2992 63.8277 6.44289 64.4024 6.73028C64.9871 7.01768 65.4232 7.41408 65.7106 7.91949C65.998 8.415 66.1417 8.96996 66.1417 9.58438C66.1417 10.2781 65.9435 10.8975 65.5471 11.4425C65.1606 11.9876 64.5858 12.3741 63.8227 12.602L66.2308 16.7345H63.3619ZM60.5821 10.9966H62.1578C62.6236 10.9966 62.9704 10.8826 63.1984 10.6547C63.4362 10.4267 63.5551 10.1047 63.5551 9.68844C63.5551 9.29204 63.4362 8.97987 63.1984 8.75194C62.9704 8.52401 62.6236 8.41004 62.1578 8.41004H60.5821V10.9966ZM74.2334 14.8912H70.3387L69.7144 16.7345H67.0535L70.8293 6.2992H73.7726L77.5483 16.7345H74.8577L74.2334 14.8912ZM73.5793 12.929L72.286 9.1087L71.0077 12.929H73.5793ZM88.0327 16.7345H85.4908L81.2394 10.2979V16.7345H78.6974V6.2992H81.2394L85.4908 12.7655V6.2992H88.0327V16.7345ZM93.651 16.8386C92.888 16.8386 92.2042 16.7147 91.5996 16.4669C90.9951 16.2192 90.5095 15.8525 90.1429 15.3669C89.7861 14.8813 89.5978 14.2966 89.578 13.6128H92.2834C92.3231 13.9993 92.4569 14.2966 92.6848 14.5047C92.9127 14.7029 93.21 14.802 93.5767 14.802C93.9533 14.802 94.2506 14.7178 94.4686 14.5493C94.6866 14.3709 94.7956 14.1281 94.7956 13.8209C94.7956 13.5633 94.7065 13.3502 94.5281 13.1817C94.3596 13.0133 94.1465 12.8745 93.8889 12.7655C93.6411 12.6565 93.2844 12.5326 92.8186 12.3939C92.1447 12.1858 91.5947 11.9777 91.1686 11.7696C90.7424 11.5614 90.3758 11.2542 90.0685 10.8479C89.7613 10.4416 89.6077 9.91142 89.6077 9.25735C89.6077 8.28617 89.9595 7.52805 90.6631 6.98299C91.3668 6.42803 92.2834 6.15055 93.4132 6.15055C94.5628 6.15055 95.4893 6.42803 96.193 6.98299C96.8966 7.52805 97.2732 8.29112 97.3227 9.27222H94.5727C94.5528 8.93527 94.429 8.67266 94.201 8.48437C93.9731 8.28617 93.6808 8.18706 93.324 8.18706C93.0168 8.18706 92.769 8.2713 92.5807 8.43977C92.3925 8.59833 92.2983 8.83122 92.2983 9.13843C92.2983 9.47537 92.4569 9.73799 92.774 9.92628C93.0911 10.1146 93.5866 10.3177 94.2605 10.5358C94.9344 10.7637 95.4794 10.9817 95.8957 11.1898C96.3218 11.3979 96.6885 11.7002 96.9957 12.0966C97.3029 12.493 97.4565 13.0034 97.4565 13.6277C97.4565 14.2223 97.3029 14.7624 96.9957 15.248C96.6984 15.7336 96.2623 16.1201 95.6875 16.4075C95.1128 16.6949 94.4339 16.8386 93.651 16.8386ZM105.517 14.8912H101.622L100.998 16.7345H98.337L102.113 6.2992H105.056L108.832 16.7345H106.141L105.517 14.8912ZM104.863 12.929L103.57 9.1087L102.291 12.929H104.863ZM109.55 11.502C109.55 10.4713 109.773 9.55465 110.219 8.75194C110.665 7.93931 111.284 7.31002 112.077 6.86407C112.88 6.40821 113.786 6.18028 114.797 6.18028C116.036 6.18028 117.096 6.50731 117.978 7.16137C118.86 7.81544 119.45 8.70734 119.747 9.83709H116.953C116.745 9.40105 116.447 9.06906 116.061 8.84113C115.684 8.6132 115.253 8.49923 114.767 8.49923C113.985 8.49923 113.35 8.77176 112.865 9.31681C112.379 9.86187 112.136 10.5903 112.136 11.502C112.136 12.4137 112.379 13.1421 112.865 13.6872C113.35 14.2322 113.985 14.5047 114.767 14.5047C115.253 14.5047 115.684 14.3908 116.061 14.1628C116.447 13.9349 116.745 13.6029 116.953 13.1669H119.747C119.45 14.2966 118.86 15.1885 117.978 15.8426C117.096 16.4867 116.036 16.8088 114.797 16.8088C113.786 16.8088 112.88 16.5858 112.077 16.1399C111.284 15.684 110.665 15.0547 110.219 14.252C109.773 13.4493 109.55 12.5326 109.55 11.502ZM128.811 6.2992V8.33572H126.046V16.7345H123.504V8.33572H120.739V6.2992H128.811ZM132.628 6.2992V16.7345H130.087V6.2992H132.628ZM139.406 16.8386C138.425 16.8386 137.523 16.6106 136.7 16.1548C135.888 15.6989 135.239 15.0647 134.753 14.252C134.277 13.4295 134.04 12.5079 134.04 11.4871C134.04 10.4664 134.277 9.5497 134.753 8.73707C135.239 7.92445 135.888 7.2902 136.7 6.83434C137.523 6.37848 138.425 6.15055 139.406 6.15055C140.387 6.15055 141.284 6.37848 142.096 6.83434C142.919 7.2902 143.563 7.92445 144.029 8.73707C144.505 9.5497 144.742 10.4664 144.742 11.4871C144.742 12.5079 144.505 13.4295 144.029 14.252C143.553 15.0647 142.909 15.6989 142.096 16.1548C141.284 16.6106 140.387 16.8386 139.406 16.8386ZM139.406 14.5196C140.238 14.5196 140.902 14.2421 141.398 13.6872C141.903 13.1322 142.156 12.3988 142.156 11.4871C142.156 10.5655 141.903 9.83214 141.398 9.28708C140.902 8.73212 140.238 8.45464 139.406 8.45464C138.563 8.45464 137.89 8.72716 137.384 9.27222C136.889 9.81727 136.641 10.5556 136.641 11.4871C136.641 12.4088 136.889 13.1471 137.384 13.702C137.89 14.2471 138.563 14.5196 139.406 14.5196ZM155.492 16.7345H152.95L148.698 10.2979V16.7345H146.157V6.2992H148.698L152.95 12.7655V6.2992H155.492V16.7345Z" fill="#A1A1A1"/>
<path d="M55.9805 37.4347C54.7386 37.4347 53.6258 37.2331 52.642 36.8299C51.6582 36.4267 50.868 35.83 50.2713 35.0398C49.6907 34.2495 49.3842 33.298 49.352 32.1852H53.7548C53.8193 32.8141 54.0371 33.298 54.408 33.6367C54.7789 33.9592 55.2628 34.1205 55.8595 34.1205C56.4724 34.1205 56.9562 33.9834 57.311 33.7092C57.6658 33.4189 57.8432 33.0238 57.8432 32.5238C57.8432 32.1045 57.6981 31.7578 57.4078 31.4836C57.1336 31.2094 56.7868 30.9837 56.3675 30.8062C55.9643 30.6288 55.3837 30.4272 54.6257 30.2015C53.529 29.8628 52.634 29.5241 51.9405 29.1854C51.247 28.8467 50.6503 28.3468 50.1503 27.6855C49.6503 27.0243 49.4004 26.1615 49.4004 25.097C49.4004 23.5165 49.9729 22.2828 51.118 21.3957C52.263 20.4926 53.7548 20.041 55.5934 20.041C57.4642 20.041 58.9721 20.4926 60.1172 21.3957C61.2623 22.2828 61.8751 23.5246 61.9558 25.1212H57.4803C57.4481 24.5729 57.2465 24.1455 56.8755 23.8391C56.5046 23.5165 56.0288 23.3553 55.4482 23.3553C54.9483 23.3553 54.5451 23.4923 54.2387 23.7665C53.9322 24.0246 53.779 24.4036 53.779 24.9035C53.779 25.4519 54.0371 25.8792 54.5532 26.1857C55.0692 26.4921 55.8756 26.8227 56.9723 27.1775C58.069 27.5485 58.956 27.9033 59.6334 28.2419C60.3269 28.5806 60.9236 29.0725 61.4235 29.7176C61.9235 30.3627 62.1735 31.1933 62.1735 32.2094C62.1735 33.177 61.9235 34.056 61.4235 34.8462C60.9397 35.6365 60.2301 36.2655 59.2947 36.7332C58.3593 37.2009 57.2545 37.4347 55.9805 37.4347ZM68.856 23.5972V27.0324H74.3959V30.2256H68.856V33.9511H75.1216V37.2654H64.7193V20.2829H75.1216V23.5972H68.856ZM77.1057 28.75C77.1057 27.0727 77.4686 25.5809 78.1943 24.2745C78.9201 22.9521 79.928 21.928 81.2183 21.2022C82.5246 20.4603 84.0003 20.0894 85.6453 20.0894C87.6613 20.0894 89.3869 20.6216 90.8223 21.686C92.2576 22.7505 93.2172 24.202 93.7011 26.0405H89.1531C88.8144 25.3309 88.3306 24.7906 87.7016 24.4197C87.0887 24.0487 86.3872 23.8633 85.5969 23.8633C84.3228 23.8633 83.2907 24.3068 82.5004 25.1938C81.7101 26.0808 81.315 27.2662 81.315 28.75C81.315 30.2337 81.7101 31.4191 82.5004 32.3061C83.2907 33.1931 84.3228 33.6367 85.5969 33.6367C86.3872 33.6367 87.0887 33.4512 87.7016 33.0802C88.3306 32.7093 88.8144 32.169 89.1531 31.4594H93.7011C93.2172 33.298 92.2576 34.7495 90.8223 35.8139C89.3869 36.8622 87.6613 37.3863 85.6453 37.3863C84.0003 37.3863 82.5246 37.0235 81.2183 36.2977C79.928 35.5558 78.9201 34.5317 78.1943 33.2254C77.4686 31.9191 77.1057 30.4272 77.1057 28.75ZM100.299 20.2829V30.4434C100.299 31.4594 100.549 32.2416 101.048 32.79C101.548 33.3383 102.282 33.6125 103.25 33.6125C104.218 33.6125 104.959 33.3383 105.476 32.79C105.992 32.2416 106.25 31.4594 106.25 30.4434V20.2829H110.386V30.4192C110.386 31.9352 110.064 33.2173 109.419 34.2656C108.774 35.3139 107.903 36.1042 106.806 36.6364C105.726 37.1686 104.516 37.4347 103.177 37.4347C101.839 37.4347 100.637 37.1767 99.5728 36.6606C98.5245 36.1284 97.6939 35.3381 97.0811 34.2898C96.4682 33.2254 96.1618 31.9352 96.1618 30.4192V20.2829H100.299ZM121.952 37.2654L118.42 30.8546H117.428V37.2654H113.291V20.2829H120.234C121.573 20.2829 122.71 20.5168 123.645 20.9845C124.597 21.4522 125.306 22.0973 125.774 22.9198C126.242 23.7262 126.476 24.6293 126.476 25.6293C126.476 26.7582 126.153 27.7662 125.508 28.6532C124.879 29.5402 123.944 30.1692 122.702 30.5401L126.621 37.2654H121.952ZM117.428 27.9275H119.992C120.75 27.9275 121.315 27.742 121.686 27.3711C122.073 27.0001 122.266 26.476 122.266 25.7986C122.266 25.1535 122.073 24.6455 121.686 24.2745C121.315 23.9036 120.75 23.7181 119.992 23.7181H117.428V27.9275ZM133.209 23.5972V27.0324H138.749V30.2256H133.209V33.9511H139.475V37.2654H129.072V20.2829H139.475V23.5972H133.209ZM148.523 20.2829C150.313 20.2829 151.877 20.6377 153.216 21.3474C154.555 22.057 155.587 23.0569 156.312 24.3471C157.054 25.6212 157.425 27.0969 157.425 28.7742C157.425 30.4353 157.054 31.911 156.312 33.2012C155.587 34.4914 154.547 35.4913 153.192 36.201C151.853 36.9106 150.297 37.2654 148.523 37.2654H142.16V20.2829H148.523ZM148.257 33.685C149.821 33.685 151.039 33.2577 151.91 32.4029C152.781 31.5481 153.216 30.3385 153.216 28.7742C153.216 27.2098 152.781 25.9921 151.91 25.1212C151.039 24.2503 149.821 23.8149 148.257 23.8149H146.297V33.685H148.257Z" fill="white"/>
</svg>
